<?xml version="1.0" encoding="utf-8" ?>
<svg baseProfile="full" height="100%" version="1.1" width="100%" xmlns="http://www.w3.org/2000/svg" xmlns:ev="http://www.w3.org/2001/xml-events" xmlns:xlink="http://www.w3.org/1999/xlink"><defs /><circle cx="20" cy="20" fill="purple" opacity="0.5" r="11.0" stroke="none" /><circle cx="70" cy="20" fill="purple" opacity="0.5" r="3.5" stroke="none" /><circle cx="120" cy="20" fill="purple" opacity="0.5" r="0.5" stroke="none" /><circle cx="170" cy="20" fill="purple" opacity="0.5" r="15.5" stroke="none" /><circle cx="220" cy="20" fill="purple" opacity="0.5" r="7.0" stroke="none" /><circle cx="270" cy="20" fill="purple" opacity="0.5" r="8.0" stroke="none" /><circle cx="320" cy="20" fill="purple" opacity="0.5" r="15.0" stroke="none" /><circle cx="370" cy="20" fill="purple" opacity="0.5" r="15.5" stroke="none" /><circle cx="420" cy="20" fill="purple" opacity="0.5" r="1.0" stroke="none" /><circle cx="470" cy="20" fill="purple" opacity="0.5" r="7.5" stroke="none" /><circle cx="20" cy="70" fill="purple" opacity="0.5" r="5.0" stroke="none" /><circle cx="70" cy="70" fill="purple" opacity="0.5" r="4.5" stroke="none" /><circle cx="120" cy="70" fill="purple" opacity="0.5" r="13.0" stroke="none" /><circle cx="170" cy="70" fill="purple" opacity="0.5" r="4.5" stroke="none" /><circle cx="220" cy="70" fill="purple" opacity="0.5" r="16.5" stroke="none" /><circle cx="270" cy="70" fill="purple" opacity="0.5" r="3.5" stroke="none" /><circle cx="320" cy="70" fill="purple" opacity="0.5" r="11.5" stroke="none" /><circle cx="370" cy="70" fill="purple" opacity="0.5" r="9.5" stroke="none" /><circle cx="420" cy="70" fill="purple" opacity="0.5" r="14.5" stroke="none" /><circle cx="470" cy="70" fill="purple" opacity="0.5" r="0.5" stroke="none" /><circle cx="20" cy="120" fill="purple" opacity="0.5" r="2.5" stroke="none" /><circle cx="70" cy="120" fill="purple" opacity="0.5" r="16.5" stroke="none" /><circle cx="120" cy="120" fill="purple" opacity="0.5" r="18.5" stroke="none" /><circle cx="170" cy="120" fill="purple" opacity="0.5" r="0.5" stroke="none" /><circle cx="220" cy="120" fill="purple" opacity="0.5" r="3.5" stroke="none" /><circle cx="270" cy="120" fill="purple" opacity="0.5" r="8.0" stroke="none" /><circle cx="320" cy="120" fill="purple" opacity="0.5" r="9.5" stroke="none" /><circle cx="370" cy="120" fill="purple" opacity="0.5" r="11.5" stroke="none" /><circle cx="420" cy="120" fill="purple" opacity="0.5" r="6.0" stroke="none" /><circle cx="470" cy="120" fill="purple" opacity="0.5" r="10.5" stroke="none" /><circle cx="20" cy="170" fill="purple" opacity="0.5" r="4.0" stroke="none" /><circle cx="70" cy="170" fill="purple" opacity="0.5" r="6.0" stroke="none" /><circle cx="120" cy="170" fill="purple" opacity="0.5" r="4.5" stroke="none" /><circle cx="170" cy="170" fill="purple" opacity="0.5" r="4.0" stroke="none" /><circle cx="220" cy="170" fill="purple" opacity="0.5" r="12.0" stroke="none" /><circle cx="270" cy="170" fill="purple" opacity="0.5" r="8.5" stroke="none" /><circle cx="320" cy="170" fill="purple" opacity="0.5" r="14.5" stroke="none" /><circle cx="370" cy="170" fill="purple" opacity="0.5" r="8.0" stroke="none" /><circle cx="420" cy="170" fill="purple" opacity="0.5" r="2.5" stroke="none" /><circle cx="470" cy="170" fill="purple" opacity="0.5" r="0.5" stroke="none" /><circle cx="20" cy="220" fill="purple" opacity="0.5" r="2.0" stroke="none" /><circle cx="70" cy="220" fill="purple" opacity="0.5" r="10.0" stroke="none" /><circle cx="120" cy="220" fill="purple" opacity="0.5" r="4.5" stroke="none" /><circle cx="170" cy="220" fill="purple" opacity="0.5" r="19.5" stroke="none" /><circle cx="220" cy="220" fill="purple" opacity="0.5" r="14.5" stroke="none" /><circle cx="270" cy="220" fill="purple" opacity="0.5" r="14.5" stroke="none" /><circle cx="320" cy="220" fill="purple" opacity="0.5" r="14.0" stroke="none" /><circle cx="370" cy="220" fill="purple" opacity="0.5" r="14.0" stroke="none" /><circle cx="420" cy="220" fill="purple" opacity="0.5" r="14.0" stroke="none" /><circle cx="470" cy="220" fill="purple" opacity="0.5" r="9.5" stroke="none" /><circle cx="20" cy="270" fill="purple" opacity="0.5" r="11.5" stroke="none" /><circle cx="70" cy="270" fill="purple" opacity="0.5" r="9.5" stroke="none" /><circle cx="120" cy="270" fill="purple" opacity="0.5" r="13.0" stroke="none" /><circle cx="170" cy="270" fill="purple" opacity="0.5" r="19.5" stroke="none" /><circle cx="220" cy="270" fill="purple" opacity="0.5" r="7.0" stroke="none" /><circle cx="270" cy="270" fill="purple" opacity="0.5" r="3.0" stroke="none" /><circle cx="320" cy="270" fill="purple" opacity="0.5" r="8.5" stroke="none" /><circle cx="370" cy="270" fill="purple" opacity="0.5" r="11.0" stroke="none" /><circle cx="420" cy="270" fill="purple" opacity="0.5" r="6.0" stroke="none" /><circle cx="470" cy="270" fill="purple" opacity="0.5" r="17.0" stroke="none" /><circle cx="20" cy="320" fill="purple" opacity="0.5" r="0.5" stroke="none" /><circle cx="70" cy="320" fill="purple" opacity="0.5" r="3.5" stroke="none" /><circle cx="120" cy="320" fill="purple" opacity="0.5" r="18.5" stroke="none" /><circle cx="170" cy="320" fill="purple" opacity="0.5" r="11.0" stroke="none" /><circle cx="220" cy="320" fill="purple" opacity="0.5" r="1.0" stroke="none" /><circle cx="270" cy="320" fill="purple" opacity="0.5" r="3.0" stroke="none" /><circle cx="320" cy="320" fill="purple" opacity="0.5" r="7.5" stroke="none" /><circle cx="370" cy="320" fill="purple" opacity="0.5" r="14.0" stroke="none" /><circle cx="420" cy="320" fill="purple" opacity="0.5" r="15.0" stroke="none" /><circle cx="470" cy="320" fill="purple" opacity="0.5" r="18.5" stroke="none" /><circle cx="20" cy="370" fill="purple" opacity="0.5" r="13.5" stroke="none" /><circle cx="70" cy="370" fill="purple" opacity="0.5" r="17.0" stroke="none" /><circle cx="120" cy="370" fill="purple" opacity="0.5" r="16.5" stroke="none" /><circle cx="170" cy="370" fill="purple" opacity="0.5" r="4.5" stroke="none" /><circle cx="220" cy="370" fill="purple" opacity="0.5" r="16.5" stroke="none" /><circle cx="270" cy="370" fill="purple" opacity="0.5" r="15.5" stroke="none" /><circle cx="320" cy="370" fill="purple" opacity="0.5" r="5.0" stroke="none" /><circle cx="370" cy="370" fill="purple" opacity="0.5" r="14.5" stroke="none" /><circle cx="420" cy="370" fill="purple" opacity="0.5" r="13.0" stroke="none" /><circle cx="470" cy="370" fill="purple" opacity="0.5" r="7.5" stroke="none" /><circle cx="20" cy="420" fill="purple" opacity="0.5" r="1.5" stroke="none" /><circle cx="70" cy="420" fill="purple" opacity="0.5" r="19.5" stroke="none" /><circle cx="120" cy="420" fill="purple" opacity="0.5" r="11.0" stroke="none" /><circle cx="170" cy="420" fill="purple" opacity="0.5" r="19.0" stroke="none" /><circle cx="220" cy="420" fill="purple" opacity="0.5" r="17.0" stroke="none" /><circle cx="270" cy="420" fill="purple" opacity="0.5" r="18.5" stroke="none" /><circle cx="320" cy="420" fill="purple" opacity="0.5" r="11.0" stroke="none" /><circle cx="370" cy="420" fill="purple" opacity="0.5" r="12.5" stroke="none" /><circle cx="420" cy="420" fill="purple" opacity="0.5" r="14.5" stroke="none" /><circle cx="470" cy="420" fill="purple" opacity="0.5" r="5.5" stroke="none" /><circle cx="20" cy="470" fill="purple" opacity="0.5" r="16.0" stroke="none" /><circle cx="70" cy="470" fill="purple" opacity="0.5" r="16.0" stroke="none" /><circle cx="120" cy="470" fill="purple" opacity="0.5" r="8.0" stroke="none" /><circle cx="170" cy="470" fill="purple" opacity="0.5" r="16.0" stroke="none" /><circle cx="220" cy="470" fill="purple" opacity="0.5" r="4.5" stroke="none" /><circle cx="270" cy="470" fill="purple" opacity="0.5" r="4.5" stroke="none" /><circle cx="320" cy="470" fill="purple" opacity="0.5" r="12.0" stroke="none" /><circle cx="370" cy="470" fill="purple" opacity="0.5" r="5.5" stroke="none" /><circle cx="420" cy="470" fill="purple" opacity="0.5" r="10.5" stroke="none" /><circle cx="470" cy="470" fill="purple" opacity="0.5" r="6.0" stroke="none" /></svg>