<?xml version="1.0" encoding="utf-8" ?>
<svg baseProfile="full" height="100%" version="1.1" width="100%" xmlns="http://www.w3.org/2000/svg" xmlns:ev="http://www.w3.org/2001/xml-events" xmlns:xlink="http://www.w3.org/1999/xlink"><defs /><circle cx="20" cy="20" fill="purple" opacity="0.5" r="2" stroke="none" /><circle cx="70" cy="20" fill="purple" opacity="0.5" r="20" stroke="none" /><circle cx="120" cy="20" fill="purple" opacity="0.5" r="2" stroke="none" /><circle cx="170" cy="20" fill="purple" opacity="0.5" r="28" stroke="none" /><circle cx="220" cy="20" fill="purple" opacity="0.5" r="0" stroke="none" /><circle cx="270" cy="20" fill="purple" opacity="0.5" r="9" stroke="none" /><circle cx="320" cy="20" fill="purple" opacity="0.5" r="9" stroke="none" /><circle cx="370" cy="20" fill="purple" opacity="0.5" r="13" stroke="none" /><circle cx="420" cy="20" fill="purple" opacity="0.5" r="38" stroke="none" /><circle cx="470" cy="20" fill="purple" opacity="0.5" r="3" stroke="none" /><circle cx="20" cy="70" fill="purple" opacity="0.5" r="11" stroke="none" /><circle cx="70" cy="70" fill="purple" opacity="0.5" r="36" stroke="none" /><circle cx="120" cy="70" fill="purple" opacity="0.5" r="8" stroke="none" /><circle cx="170" cy="70" fill="purple" opacity="0.5" r="31" stroke="none" /><circle cx="220" cy="70" fill="purple" opacity="0.5" r="32" stroke="none" /><circle cx="270" cy="70" fill="purple" opacity="0.5" r="26" stroke="none" /><circle cx="320" cy="70" fill="purple" opacity="0.5" r="34" stroke="none" /><circle cx="370" cy="70" fill="purple" opacity="0.5" r="28" stroke="none" /><circle cx="420" cy="70" fill="purple" opacity="0.5" r="13" stroke="none" /><circle cx="470" cy="70" fill="purple" opacity="0.5" r="38" stroke="none" /><circle cx="20" cy="120" fill="purple" opacity="0.5" r="24" stroke="none" /><circle cx="70" cy="120" fill="purple" opacity="0.5" r="31" stroke="none" /><circle cx="120" cy="120" fill="purple" opacity="0.5" r="27" stroke="none" /><circle cx="170" cy="120" fill="purple" opacity="0.5" r="32" stroke="none" /><circle cx="220" cy="120" fill="purple" opacity="0.5" r="6" stroke="none" /><circle cx="270" cy="120" fill="purple" opacity="0.5" r="39" stroke="none" /><circle cx="320" cy="120" fill="purple" opacity="0.5" r="9" stroke="none" /><circle cx="370" cy="120" fill="purple" opacity="0.5" r="11" stroke="none" /><circle cx="420" cy="120" fill="purple" opacity="0.5" r="28" stroke="none" /><circle cx="470" cy="120" fill="purple" opacity="0.5" r="9" stroke="none" /><circle cx="20" cy="170" fill="purple" opacity="0.5" r="19" stroke="none" /><circle cx="70" cy="170" fill="purple" opacity="0.5" r="10" stroke="none" /><circle cx="120" cy="170" fill="purple" opacity="0.5" r="1" stroke="none" /><circle cx="170" cy="170" fill="purple" opacity="0.5" r="38" stroke="none" /><circle cx="220" cy="170" fill="purple" opacity="0.5" r="15" stroke="none" /><circle cx="270" cy="170" fill="purple" opacity="0.5" r="2" stroke="none" /><circle cx="320" cy="170" fill="purple" opacity="0.5" r="19" stroke="none" /><circle cx="370" cy="170" fill="purple" opacity="0.5" r="37" stroke="none" /><circle cx="420" cy="170" fill="purple" opacity="0.5" r="18" stroke="none" /><circle cx="470" cy="170" fill="purple" opacity="0.5" r="30" stroke="none" /><circle cx="20" cy="220" fill="purple" opacity="0.5" r="37" stroke="none" /><circle cx="70" cy="220" fill="purple" opacity="0.5" r="32" stroke="none" /><circle cx="120" cy="220" fill="purple" opacity="0.5" r="38" stroke="none" /><circle cx="170" cy="220" fill="purple" opacity="0.5" r="3" stroke="none" /><circle cx="220" cy="220" fill="purple" opacity="0.5" r="25" stroke="none" /><circle cx="270" cy="220" fill="purple" opacity="0.5" r="32" stroke="none" /><circle cx="320" cy="220" fill="purple" opacity="0.5" r="16" stroke="none" /><circle cx="370" cy="220" fill="purple" opacity="0.5" r="3" stroke="none" /><circle cx="420" cy="220" fill="purple" opacity="0.5" r="6" stroke="none" /><circle cx="470" cy="220" fill="purple" opacity="0.5" r="1" stroke="none" /><circle cx="20" cy="270" fill="purple" opacity="0.5" r="39" stroke="none" /><circle cx="70" cy="270" fill="purple" opacity="0.5" r="28" stroke="none" /><circle cx="120" cy="270" fill="purple" opacity="0.5" r="39" stroke="none" /><circle cx="170" cy="270" fill="purple" opacity="0.5" r="34" stroke="none" /><circle cx="220" cy="270" fill="purple" opacity="0.5" r="39" stroke="none" /><circle cx="270" cy="270" fill="purple" opacity="0.5" r="36" stroke="none" /><circle cx="320" cy="270" fill="purple" opacity="0.5" r="32" stroke="none" /><circle cx="370" cy="270" fill="purple" opacity="0.5" r="36" stroke="none" /><circle cx="420" cy="270" fill="purple" opacity="0.5" r="1" stroke="none" /><circle cx="470" cy="270" fill="purple" opacity="0.5" r="37" stroke="none" /><circle cx="20" cy="320" fill="purple" opacity="0.5" r="6" stroke="none" /><circle cx="70" cy="320" fill="purple" opacity="0.5" r="2" stroke="none" /><circle cx="120" cy="320" fill="purple" opacity="0.5" r="9" stroke="none" /><circle cx="170" cy="320" fill="purple" opacity="0.5" r="1" stroke="none" /><circle cx="220" cy="320" fill="purple" opacity="0.5" r="12" stroke="none" /><circle cx="270" cy="320" fill="purple" opacity="0.5" r="20" stroke="none" /><circle cx="320" cy="320" fill="purple" opacity="0.5" r="0" stroke="none" /><circle cx="370" cy="320" fill="purple" opacity="0.5" r="16" stroke="none" /><circle cx="420" cy="320" fill="purple" opacity="0.5" r="0" stroke="none" /><circle cx="470" cy="320" fill="purple" opacity="0.5" r="7" stroke="none" /><circle cx="20" cy="370" fill="purple" opacity="0.5" r="26" stroke="none" /><circle cx="70" cy="370" fill="purple" opacity="0.5" r="15" stroke="none" /><circle cx="120" cy="370" fill="purple" opacity="0.5" r="31" stroke="none" /><circle cx="170" cy="370" fill="purple" opacity="0.5" r="11" stroke="none" /><circle cx="220" cy="370" fill="purple" opacity="0.5" r="17" stroke="none" /><circle cx="270" cy="370" fill="purple" opacity="0.5" r="8" stroke="none" /><circle cx="320" cy="370" fill="purple" opacity="0.5" r="24" stroke="none" /><circle cx="370" cy="370" fill="purple" opacity="0.5" r="4" stroke="none" /><circle cx="420" cy="370" fill="purple" opacity="0.5" r="10" stroke="none" /><circle cx="470" cy="370" fill="purple" opacity="0.5" r="37" stroke="none" /><circle cx="20" cy="420" fill="purple" opacity="0.5" r="9" stroke="none" /><circle cx="70" cy="420" fill="purple" opacity="0.5" r="37" stroke="none" /><circle cx="120" cy="420" fill="purple" opacity="0.5" r="4" stroke="none" /><circle cx="170" cy="420" fill="purple" opacity="0.5" r="22" stroke="none" /><circle cx="220" cy="420" fill="purple" opacity="0.5" r="19" stroke="none" /><circle cx="270" cy="420" fill="purple" opacity="0.5" r="20" stroke="none" /><circle cx="320" cy="420" fill="purple" opacity="0.5" r="23" stroke="none" /><circle cx="370" cy="420" fill="purple" opacity="0.5" r="5" stroke="none" /><circle cx="420" cy="420" fill="purple" opacity="0.5" r="33" stroke="none" /><circle cx="470" cy="420" fill="purple" opacity="0.5" r="34" stroke="none" /><circle cx="20" cy="470" fill="purple" opacity="0.5" r="1" stroke="none" /><circle cx="70" cy="470" fill="purple" opacity="0.5" r="31" stroke="none" /><circle cx="120" cy="470" fill="purple" opacity="0.5" r="39" stroke="none" /><circle cx="170" cy="470" fill="purple" opacity="0.5" r="13" stroke="none" /><circle cx="220" cy="470" fill="purple" opacity="0.5" r="38" stroke="none" /><circle cx="270" cy="470" fill="purple" opacity="0.5" r="31" stroke="none" /><circle cx="320" cy="470" fill="purple" opacity="0.5" r="18" stroke="none" /><circle cx="370" cy="470" fill="purple" opacity="0.5" r="26" stroke="none" /><circle cx="420" cy="470" fill="purple" opacity="0.5" r="25" stroke="none" /><circle cx="470" cy="470" fill="purple" opacity="0.5" r="8" stroke="none" /></svg>