<?xml version="1.0" encoding="utf-8" ?>
<svg baseProfile="full" height="100%" version="1.1" width="100%" xmlns="http://www.w3.org/2000/svg" xmlns:ev="http://www.w3.org/2001/xml-events" xmlns:xlink="http://www.w3.org/1999/xlink"><defs /><path d="M 20 69 S 50.0 69 60 69 S 70.0 69 80 69 S 90.0 68 100 68 S 110.0 68 120 70 S 130.0 66 140 66 S 150.0 66 160 70 S 170.0 68 180 68 S 190.0 68 200 69 S 210.0 69 220 69 S 230.0 68 240 68 S 250.0 68 260 68 S 270.0 68 280 68 S 290.0 68 300 68 S 310.0 68 320 69 S 330.0 69 340 69 S 350.0 68 360 68 S 370.0 68 380 70 S 390.0 69 400 69 S 410.0 69 420 69 S 430.0 69 440 70 S 450.0 69 460 69 S 470.0 69 480 70 S 490.0 69 500 69 S 510.0 69 520 70 S 530.0 70 540 70 S 550.0 70 560 70 S 570.0 70 580 70 S 590.0 70 600 70 S 610.0 70 620 70 S 630.0 70 640 70 S 650.0 70 660 70 S 670.0 70 680 70 S 690.0 70 700 70 S 710.0 70 720 70 S 730.0 70 740 70 S 750.0 70 760 70 S 770.0 70 780 70 S 790.0 70 800 70 S 810.0 70 820 70" fill="white" stroke="black" stroke-width="5" /><path d="M 20 90 S 50.0 89 60 90 S 70.0 90 80 90 S 90.0 90 100 90 S 110.0 90 120 90 S 130.0 90 140 90 S 150.0 88 160 88 S 170.0 88 180 90 S 190.0 90 200 90 S 210.0 90 220 90 S 230.0 90 240 90 S 250.0 90 260 90 S 270.0 90 280 90 S 290.0 90 300 90 S 310.0 90 320 90 S 330.0 90 340 90 S 350.0 90 360 90 S 370.0 90 380 90 S 390.0 89 400 89 S 410.0 89 420 90 S 430.0 90 440 90 S 450.0 89 460 89 S 470.0 89 480 90 S 490.0 89 500 89 S 510.0 89 520 90 S 530.0 90 540 90 S 550.0 90 560 90 S 570.0 90 580 90 S 590.0 90 600 90 S 610.0 90 620 90 S 630.0 90 640 90 S 650.0 90 660 90 S 670.0 90 680 90 S 690.0 90 700 90 S 710.0 90 720 90 S 730.0 90 740 90 S 750.0 90 760 90 S 770.0 90 780 90 S 790.0 90 800 90 S 810.0 90 820 90" fill="white" stroke="black" stroke-width="5" /><path d="M 20 109 S 50.0 109 60 109 S 70.0 109 80 110 S 90.0 109 100 109 S 110.0 109 120 109 S 130.0 109 140 109 S 150.0 86 160 86 S 170.0 80 180 80 S 190.0 80 200 82 S 210.0 82 220 82 S 230.0 81 240 81 S 250.0 81 260 81 S 270.0 81 280 81 S 290.0 81 300 81 S 310.0 81 320 82 S 330.0 82 340 82 S 350.0 81 360 81 S 370.0 81 380 81 S 390.0 81 400 89 S 410.0 89 420 109 S 430.0 108 440 108 S 450.0 108 460 110 S 470.0 110 480 110 S 490.0 110 500 110 S 510.0 110 520 110 S 530.0 110 540 110 S 550.0 110 560 110 S 570.0 110 580 110 S 590.0 110 600 110 S 610.0 110 620 110 S 630.0 110 640 110 S 650.0 110 660 110 S 670.0 110 680 110 S 690.0 110 700 110 S 710.0 110 720 110 S 730.0 110 740 110 S 750.0 110 760 110 S 770.0 110 780 110 S 790.0 110 800 110 S 810.0 110 820 110" fill="white" stroke="black" stroke-width="5" /><path d="M 20 128 S 50.0 128 60 128 S 70.0 128 80 129 S 90.0 129 100 130 S 110.0 129 120 129 S 130.0 129 140 130 S 150.0 99 160 99 S 170.0 80 180 80 S 190.0 80 200 80 S 210.0 80 220 80 S 230.0 80 240 80 S 250.0 80 260 80 S 270.0 80 280 80 S 290.0 80 300 80 S 310.0 80 320 80 S 330.0 80 340 80 S 350.0 80 360 80 S 370.0 80 380 80 S 390.0 80 400 96 S 410.0 96 420 130 S 430.0 128 440 128 S 450.0 128 460 130 S 470.0 130 480 130 S 490.0 129 500 129 S 510.0 129 520 130 S 530.0 130 540 130 S 550.0 130 560 130 S 570.0 130 580 130 S 590.0 130 600 130 S 610.0 130 620 130 S 630.0 130 640 130 S 650.0 130 660 130 S 670.0 130 680 130 S 690.0 130 700 130 S 710.0 130 720 130 S 730.0 130 740 130 S 750.0 130 760 130 S 770.0 130 780 130 S 790.0 130 800 130 S 810.0 130 820 130" fill="white" stroke="black" stroke-width="5" /><path d="M 20 148 S 50.0 148 60 148 S 70.0 148 80 150 S 90.0 150 100 150 S 110.0 148 120 148 S 130.0 148 140 150 S 150.0 129 160 129 S 170.0 101 180 101 S 190.0 100 200 100 S 210.0 100 220 100 S 230.0 100 240 100 S 250.0 100 260 100 S 270.0 100 280 100 S 290.0 100 300 100 S 310.0 100 320 100 S 330.0 100 340 100 S 350.0 100 360 102 S 370.0 100 380 100 S 390.0 100 400 115 S 410.0 115 420 150 S 430.0 148 440 148 S 450.0 148 460 150 S 470.0 149 480 149 S 490.0 149 500 150 S 510.0 150 520 150 S 530.0 150 540 150 S 550.0 150 560 150 S 570.0 150 580 150 S 590.0 150 600 150 S 610.0 150 620 150 S 630.0 150 640 150 S 650.0 150 660 150 S 670.0 150 680 150 S 690.0 150 700 150 S 710.0 150 720 150 S 730.0 150 740 150 S 750.0 150 760 150 S 770.0 150 780 150 S 790.0 150 800 150 S 810.0 150 820 150" fill="white" stroke="black" stroke-width="5" /><path d="M 20 169 S 50.0 169 60 169 S 70.0 169 80 170 S 90.0 169 100 169 S 110.0 167 120 167 S 130.0 167 140 169 S 150.0 149 160 149 S 170.0 120 180 120 S 190.0 120 200 120 S 210.0 120 220 120 S 230.0 120 240 120 S 250.0 120 260 120 S 270.0 120 280 120 S 290.0 120 300 120 S 310.0 120 320 120 S 330.0 120 340 120 S 350.0 120 360 120 S 370.0 120 380 120 S 390.0 120 400 134 S 410.0 134 420 170 S 430.0 168 440 168 S 450.0 168 460 170 S 470.0 169 480 169 S 490.0 169 500 170 S 510.0 170 520 170 S 530.0 170 540 170 S 550.0 170 560 170 S 570.0 170 580 170 S 590.0 170 600 170 S 610.0 170 620 170 S 630.0 170 640 170 S 650.0 170 660 170 S 670.0 170 680 170 S 690.0 170 700 170 S 710.0 170 720 170 S 730.0 170 740 170 S 750.0 170 760 170 S 770.0 170 780 170 S 790.0 170 800 170 S 810.0 170 820 170" fill="white" stroke="black" stroke-width="5" /><path d="M 20 188 S 50.0 188 60 188 S 70.0 188 80 188 S 90.0 188 100 189 S 110.0 189 120 190 S 130.0 190 140 190 S 150.0 160 160 160 S 170.0 140 180 140 S 190.0 140 200 140 S 210.0 140 220 140 S 230.0 140 240 140 S 250.0 140 260 140 S 270.0 140 280 140 S 290.0 140 300 140 S 310.0 140 320 140 S 330.0 140 340 140 S 350.0 140 360 140 S 370.0 140 380 140 S 390.0 140 400 156 S 410.0 156 420 190 S 430.0 190 440 190 S 450.0 190 460 190 S 470.0 189 480 189 S 490.0 189 500 189 S 510.0 189 520 190 S 530.0 190 540 190 S 550.0 190 560 190 S 570.0 190 580 190 S 590.0 190 600 190 S 610.0 190 620 190 S 630.0 190 640 190 S 650.0 190 660 190 S 670.0 190 680 190 S 690.0 190 700 190 S 710.0 190 720 190 S 730.0 190 740 190 S 750.0 190 760 190 S 770.0 190 780 190 S 790.0 190 800 190 S 810.0 190 820 190" fill="white" stroke="black" stroke-width="5" /><path d="M 20 210 S 50.0 209 60 210 S 70.0 210 80 210 S 90.0 210 100 210 S 110.0 207 120 207 S 130.0 207 140 208 S 150.0 167 160 167 S 170.0 161 180 161 S 190.0 160 200 160 S 210.0 160 220 160 S 230.0 160 240 160 S 250.0 160 260 160 S 270.0 160 280 160 S 290.0 160 300 160 S 310.0 160 320 160 S 330.0 160 340 160 S 350.0 160 360 160 S 370.0 160 380 161 S 390.0 161 400 176 S 410.0 176 420 207 S 430.0 207 440 209 S 450.0 209 460 210 S 470.0 209 480 209 S 490.0 209 500 210 S 510.0 210 520 210 S 530.0 210 540 210 S 550.0 210 560 210 S 570.0 210 580 210 S 590.0 210 600 210 S 610.0 210 620 210 S 630.0 210 640 210 S 650.0 210 660 210 S 670.0 210 680 210 S 690.0 210 700 210 S 710.0 210 720 210 S 730.0 210 740 210 S 750.0 210 760 210 S 770.0 210 780 210 S 790.0 210 800 210 S 810.0 210 820 210" fill="white" stroke="black" stroke-width="5" /><path d="M 20 230 S 50.0 229 60 230 S 70.0 228 80 228 S 90.0 228 100 229 S 110.0 229 120 229 S 130.0 217 140 217 S 150.0 180 160 180 S 170.0 180 180 181 S 190.0 181 200 181 S 210.0 180 220 180 S 230.0 180 240 180 S 250.0 180 260 182 S 270.0 180 280 180 S 290.0 180 300 180 S 310.0 180 320 180 S 330.0 180 340 180 S 350.0 180 360 181 S 370.0 180 380 180 S 390.0 180 400 196 S 410.0 196 420 230 S 430.0 227 440 227 S 450.0 227 460 230 S 470.0 230 480 230 S 490.0 228 500 228 S 510.0 228 520 230 S 530.0 230 540 230 S 550.0 230 560 230 S 570.0 230 580 230 S 590.0 230 600 230 S 610.0 230 620 230 S 630.0 230 640 230 S 650.0 230 660 230 S 670.0 230 680 230 S 690.0 230 700 230 S 710.0 230 720 230 S 730.0 230 740 230 S 750.0 230 760 230 S 770.0 230 780 230 S 790.0 230 800 230 S 810.0 230 820 230" fill="white" stroke="black" stroke-width="5" /><path d="M 20 250 S 50.0 248 60 250 S 70.0 250 80 250 S 90.0 250 100 250 S 110.0 250 120 250 S 130.0 246 140 246 S 150.0 216 160 216 S 170.0 200 180 200 S 190.0 200 200 201 S 210.0 201 220 201 S 230.0 200 240 200 S 250.0 200 260 200 S 270.0 200 280 200 S 290.0 200 300 200 S 310.0 200 320 201 S 330.0 200 340 200 S 350.0 200 360 200 S 370.0 200 380 200 S 390.0 200 400 216 S 410.0 216 420 248 S 430.0 247 440 247 S 450.0 247 460 250 S 470.0 250 480 250 S 490.0 249 500 249 S 510.0 249 520 250 S 530.0 250 540 250 S 550.0 250 560 250 S 570.0 250 580 250 S 590.0 250 600 250 S 610.0 250 620 250 S 630.0 250 640 250 S 650.0 250 660 250 S 670.0 250 680 250 S 690.0 250 700 250 S 710.0 250 720 250 S 730.0 250 740 250 S 750.0 250 760 250 S 770.0 250 780 250 S 790.0 250 800 250 S 810.0 250 820 250" fill="white" stroke="black" stroke-width="5" /><path d="M 20 269 S 50.0 269 60 269 S 70.0 269 80 269 S 90.0 269 100 270 S 110.0 268 120 268 S 130.0 268 140 270 S 150.0 261 160 261 S 170.0 227 180 227 S 190.0 220 200 220 S 210.0 220 220 222 S 230.0 220 240 220 S 250.0 220 260 220 S 270.0 220 280 220 S 290.0 220 300 220 S 310.0 220 320 220 S 330.0 220 340 220 S 350.0 220 360 220 S 370.0 220 380 220 S 390.0 220 400 235 S 410.0 235 420 269 S 430.0 269 440 270 S 450.0 270 460 270 S 470.0 269 480 269 S 490.0 269 500 270 S 510.0 270 520 270 S 530.0 270 540 270 S 550.0 270 560 270 S 570.0 270 580 270 S 590.0 270 600 270 S 610.0 270 620 270 S 630.0 270 640 270 S 650.0 270 660 270 S 670.0 270 680 270 S 690.0 270 700 270 S 710.0 270 720 270 S 730.0 270 740 270 S 750.0 270 760 270 S 770.0 270 780 270 S 790.0 270 800 270 S 810.0 270 820 270" fill="white" stroke="black" stroke-width="5" /><path d="M 20 289 S 50.0 289 60 289 S 70.0 288 80 288 S 90.0 288 100 290 S 110.0 288 120 288 S 130.0 288 140 289 S 150.0 289 160 290 S 170.0 260 180 260 S 190.0 240 200 240 S 210.0 240 220 242 S 230.0 240 240 240 S 250.0 240 260 241 S 270.0 241 280 242 S 290.0 240 300 240 S 310.0 240 320 240 S 330.0 240 340 240 S 350.0 240 360 240 S 370.0 240 380 240 S 390.0 240 400 256 S 410.0 256 420 290 S 430.0 290 440 290 S 450.0 289 460 289 S 470.0 288 480 288 S 490.0 288 500 290 S 510.0 290 520 290 S 530.0 290 540 290 S 550.0 290 560 290 S 570.0 290 580 290 S 590.0 290 600 290 S 610.0 290 620 290 S 630.0 290 640 290 S 650.0 290 660 290 S 670.0 290 680 290 S 690.0 290 700 290 S 710.0 290 720 290 S 730.0 290 740 290 S 750.0 290 760 290 S 770.0 290 780 290 S 790.0 290 800 290 S 810.0 290 820 290" fill="white" stroke="black" stroke-width="5" /><path d="M 20 310 S 50.0 309 60 310 S 70.0 309 80 309 S 90.0 309 100 310 S 110.0 310 120 310 S 130.0 305 140 305 S 150.0 305 160 310 S 170.0 284 180 284 S 190.0 262 200 262 S 210.0 262 220 262 S 230.0 260 240 260 S 250.0 260 260 260 S 270.0 260 280 260 S 290.0 260 300 260 S 310.0 260 320 261 S 330.0 260 340 260 S 350.0 260 360 260 S 370.0 260 380 261 S 390.0 261 400 277 S 410.0 277 420 310 S 430.0 304 440 304 S 450.0 304 460 310 S 470.0 310 480 310 S 490.0 308 500 308 S 510.0 308 520 310 S 530.0 310 540 310 S 550.0 310 560 310 S 570.0 310 580 310 S 590.0 310 600 310 S 610.0 310 620 310 S 630.0 310 640 310 S 650.0 310 660 310 S 670.0 310 680 310 S 690.0 310 700 310 S 710.0 310 720 310 S 730.0 310 740 310 S 750.0 310 760 310 S 770.0 310 780 310 S 790.0 310 800 310 S 810.0 310 820 310" fill="white" stroke="black" stroke-width="5" /><path d="M 20 330 S 50.0 328 60 330 S 70.0 329 80 329 S 90.0 329 100 329 S 110.0 329 120 330 S 130.0 328 140 328 S 150.0 328 160 330 S 170.0 310 180 310 S 190.0 280 200 280 S 210.0 280 220 280 S 230.0 280 240 281 S 250.0 280 260 280 S 270.0 280 280 280 S 290.0 280 300 280 S 310.0 280 320 281 S 330.0 280 340 280 S 350.0 280 360 280 S 370.0 280 380 280 S 390.0 280 400 294 S 410.0 294 420 330 S 430.0 329 440 329 S 450.0 329 460 330 S 470.0 329 480 329 S 490.0 329 500 329 S 510.0 329 520 330 S 530.0 330 540 330 S 550.0 330 560 330 S 570.0 330 580 330 S 590.0 330 600 330 S 610.0 330 620 330 S 630.0 330 640 330 S 650.0 330 660 330 S 670.0 330 680 330 S 690.0 330 700 330 S 710.0 330 720 330 S 730.0 330 740 330 S 750.0 330 760 330 S 770.0 330 780 330 S 790.0 330 800 330 S 810.0 330 820 330" fill="white" stroke="black" stroke-width="5" /><path d="M 20 350 S 50.0 349 60 350 S 70.0 349 80 349 S 90.0 347 100 347 S 110.0 347 120 349 S 130.0 349 140 350 S 150.0 350 160 350 S 170.0 342 180 342 S 190.0 307 200 307 S 210.0 300 220 300 S 230.0 300 240 302 S 250.0 301 260 301 S 270.0 300 280 300 S 290.0 300 300 300 S 310.0 300 320 300 S 330.0 300 340 300 S 350.0 300 360 301 S 370.0 300 380 300 S 390.0 300 400 306 S 410.0 306 420 333 S 430.0 333 440 348 S 450.0 348 460 350 S 470.0 349 480 349 S 490.0 349 500 350 S 510.0 350 520 350 S 530.0 350 540 350 S 550.0 350 560 350 S 570.0 350 580 350 S 590.0 350 600 350 S 610.0 350 620 350 S 630.0 350 640 350 S 650.0 350 660 350 S 670.0 350 680 350 S 690.0 350 700 350 S 710.0 350 720 350 S 730.0 350 740 350 S 750.0 350 760 350 S 770.0 350 780 350 S 790.0 350 800 350 S 810.0 350 820 350" fill="white" stroke="black" stroke-width="5" /><path d="M 20 368 S 50.0 368 60 368 S 70.0 368 80 370 S 90.0 370 100 370 S 110.0 368 120 368 S 130.0 368 140 369 S 150.0 368 160 368 S 170.0 368 180 369 S 190.0 354 200 354 S 210.0 323 220 323 S 230.0 320 240 320 S 250.0 320 260 320 S 270.0 320 280 320 S 290.0 320 300 322 S 310.0 320 320 320 S 330.0 320 340 320 S 350.0 320 360 320 S 370.0 320 380 321 S 390.0 320 400 320 S 410.0 320 420 322 S 430.0 322 440 352 S 450.0 352 460 367 S 470.0 367 480 370 S 490.0 368 500 368 S 510.0 368 520 370 S 530.0 370 540 370 S 550.0 370 560 370 S 570.0 370 580 370 S 590.0 370 600 370 S 610.0 370 620 370 S 630.0 370 640 370 S 650.0 370 660 370 S 670.0 370 680 370 S 690.0 370 700 370 S 710.0 370 720 370 S 730.0 370 740 370 S 750.0 370 760 370 S 770.0 370 780 370 S 790.0 370 800 370 S 810.0 370 820 370" fill="white" stroke="black" stroke-width="5" /><path d="M 20 390 S 50.0 390 60 390 S 70.0 390 80 390 S 90.0 390 100 390 S 110.0 390 120 390 S 130.0 390 140 390 S 150.0 390 160 390 S 170.0 390 180 390 S 190.0 390 200 390 S 210.0 374 220 374 S 230.0 340 240 340 S 250.0 340 260 340 S 270.0 340 280 342 S 290.0 340 300 340 S 310.0 340 320 341 S 330.0 340 340 340 S 350.0 340 360 340 S 370.0 340 380 340 S 390.0 340 400 341 S 410.0 340 420 340 S 430.0 340 440 340 S 450.0 340 460 365 S 470.0 365 480 390 S 490.0 390 500 390 S 510.0 390 520 390 S 530.0 390 540 390 S 550.0 387 560 387 S 570.0 387 580 390 S 590.0 390 600 390 S 610.0 388 620 388 S 630.0 388 640 389 S 650.0 389 660 390 S 670.0 390 680 390 S 690.0 390 700 390 S 710.0 390 720 390 S 730.0 390 740 390 S 750.0 390 760 390 S 770.0 390 780 390 S 790.0 390 800 390 S 810.0 390 820 390" fill="white" stroke="black" stroke-width="5" /><path d="M 20 410 S 50.0 410 60 410 S 70.0 410 80 410 S 90.0 410 100 410 S 110.0 410 120 410 S 130.0 410 140 410 S 150.0 410 160 410 S 170.0 410 180 410 S 190.0 408 200 408 S 210.0 407 220 407 S 230.0 371 240 371 S 250.0 371 260 371 S 270.0 361 280 361 S 290.0 361 300 362 S 310.0 360 320 360 S 330.0 360 340 362 S 350.0 360 360 360 S 370.0 360 380 361 S 390.0 361 400 361 S 410.0 360 420 360 S 430.0 360 440 360 S 450.0 360 460 362 S 470.0 362 480 381 S 490.0 381 500 407 S 510.0 407 520 410 S 530.0 410 540 410 S 550.0 410 560 410 S 570.0 406 580 406 S 590.0 406 600 409 S 610.0 409 620 410 S 630.0 409 640 409 S 650.0 409 660 409 S 670.0 409 680 410 S 690.0 410 700 410 S 710.0 410 720 410 S 730.0 410 740 410 S 750.0 410 760 410 S 770.0 410 780 410 S 790.0 410 800 410 S 810.0 410 820 410" fill="white" stroke="black" stroke-width="5" /><path d="M 20 430 S 50.0 430 60 430 S 70.0 430 80 430 S 90.0 430 100 430 S 110.0 430 120 430 S 130.0 430 140 430 S 150.0 430 160 430 S 170.0 430 180 430 S 190.0 430 200 430 S 210.0 429 220 429 S 230.0 424 240 424 S 250.0 411 260 411 S 270.0 384 280 384 S 290.0 380 300 380 S 310.0 380 320 382 S 330.0 380 340 380 S 350.0 380 360 380 S 370.0 380 380 383 S 390.0 380 400 380 S 410.0 380 420 380 S 430.0 380 440 382 S 450.0 380 460 380 S 470.0 380 480 381 S 490.0 381 500 398 S 510.0 398 520 429 S 530.0 424 540 424 S 550.0 424 560 430 S 570.0 430 580 430 S 590.0 427 600 427 S 610.0 427 620 430 S 630.0 430 640 430 S 650.0 430 660 430 S 670.0 430 680 430 S 690.0 430 700 430 S 710.0 430 720 430 S 730.0 430 740 430 S 750.0 430 760 430 S 770.0 430 780 430 S 790.0 430 800 430 S 810.0 430 820 430" fill="white" stroke="black" stroke-width="5" /><path d="M 20 450 S 50.0 450 60 450 S 70.0 450 80 450 S 90.0 450 100 450 S 110.0 450 120 450 S 130.0 450 140 450 S 150.0 450 160 450 S 170.0 450 180 450 S 190.0 450 200 450 S 210.0 448 220 448 S 230.0 448 240 450 S 250.0 425 260 425 S 270.0 411 280 411 S 290.0 400 300 400 S 310.0 400 320 403 S 330.0 400 340 400 S 350.0 400 360 400 S 370.0 400 380 400 S 390.0 400 400 401 S 410.0 400 420 400 S 430.0 400 440 400 S 450.0 400 460 400 S 470.0 400 480 400 S 490.0 400 500 400 S 510.0 400 520 414 S 530.0 414 540 448 S 550.0 448 560 448 S 570.0 448 580 450 S 590.0 449 600 449 S 610.0 448 620 448 S 630.0 448 640 450 S 650.0 448 660 448 S 670.0 448 680 450 S 690.0 450 700 450 S 710.0 450 720 450 S 730.0 450 740 450 S 750.0 450 760 450 S 770.0 450 780 450 S 790.0 450 800 450 S 810.0 450 820 450" fill="white" stroke="black" stroke-width="5" /><path d="M 20 470 S 50.0 470 60 470 S 70.0 470 80 470 S 90.0 470 100 470 S 110.0 470 120 470 S 130.0 470 140 470 S 150.0 470 160 470 S 170.0 470 180 470 S 190.0 469 200 469 S 210.0 469 220 470 S 230.0 467 240 467 S 250.0 447 260 447 S 270.0 422 280 422 S 290.0 420 300 420 S 310.0 420 320 420 S 330.0 420 340 421 S 350.0 420 360 420 S 370.0 420 380 420 S 390.0 420 400 420 S 410.0 420 420 422 S 430.0 420 440 420 S 450.0 420 460 420 S 470.0 420 480 420 S 490.0 420 500 420 S 510.0 420 520 420 S 530.0 420 540 431 S 550.0 431 560 468 S 570.0 465 580 465 S 590.0 465 600 470 S 610.0 470 620 470 S 630.0 468 640 468 S 650.0 468 660 470 S 670.0 470 680 470 S 690.0 470 700 470 S 710.0 470 720 470 S 730.0 470 740 470 S 750.0 470 760 470 S 770.0 470 780 470 S 790.0 470 800 470 S 810.0 470 820 470" fill="white" stroke="black" stroke-width="5" /><path d="M 20 490 S 50.0 490 60 490 S 70.0 490 80 490 S 90.0 490 100 490 S 110.0 490 120 490 S 130.0 490 140 490 S 150.0 490 160 490 S 170.0 490 180 490 S 190.0 490 200 490 S 210.0 490 220 490 S 230.0 490 240 490 S 250.0 488 260 488 S 270.0 458 280 458 S 290.0 444 300 444 S 310.0 441 320 441 S 330.0 440 340 440 S 350.0 440 360 442 S 370.0 440 380 440 S 390.0 440 400 440 S 410.0 440 420 440 S 430.0 440 440 440 S 450.0 440 460 440 S 470.0 440 480 440 S 490.0 440 500 440 S 510.0 440 520 440 S 530.0 440 540 440 S 550.0 440 560 447 S 570.0 447 580 488 S 590.0 488 600 489 S 610.0 489 620 490 S 630.0 489 640 489 S 650.0 489 660 490 S 670.0 490 680 490 S 690.0 490 700 490 S 710.0 490 720 490 S 730.0 490 740 490 S 750.0 490 760 490 S 770.0 490 780 490 S 790.0 490 800 490 S 810.0 490 820 490" fill="white" stroke="black" stroke-width="5" /><path d="M 20 510 S 50.0 510 60 510 S 70.0 510 80 510 S 90.0 510 100 510 S 110.0 510 120 510 S 130.0 510 140 510 S 150.0 510 160 510 S 170.0 510 180 510 S 190.0 508 200 508 S 210.0 508 220 510 S 230.0 508 240 508 S 250.0 508 260 510 S 270.0 510 280 510 S 290.0 475 300 475 S 310.0 462 320 462 S 330.0 460 340 460 S 350.0 460 360 460 S 370.0 460 380 461 S 390.0 461 400 461 S 410.0 460 420 460 S 430.0 460 440 460 S 450.0 460 460 460 S 470.0 460 480 460 S 490.0 460 500 460 S 510.0 460 520 460 S 530.0 460 540 462 S 550.0 460 560 460 S 570.0 460 580 466 S 590.0 466 600 503 S 610.0 503 620 507 S 630.0 507 640 510 S 650.0 508 660 508 S 670.0 508 680 510 S 690.0 510 700 510 S 710.0 510 720 510 S 730.0 510 740 510 S 750.0 510 760 510 S 770.0 510 780 510 S 790.0 510 800 510 S 810.0 510 820 510" fill="white" stroke="black" stroke-width="5" /><path d="M 20 530 S 50.0 530 60 530 S 70.0 530 80 530 S 90.0 530 100 530 S 110.0 530 120 530 S 130.0 530 140 530 S 150.0 530 160 530 S 170.0 530 180 530 S 190.0 530 200 530 S 210.0 530 220 530 S 230.0 528 240 528 S 250.0 528 260 530 S 270.0 524 280 524 S 290.0 480 300 480 S 310.0 480 320 480 S 330.0 480 340 481 S 350.0 481 360 482 S 370.0 480 380 480 S 390.0 480 400 480 S 410.0 480 420 480 S 430.0 480 440 480 S 450.0 480 460 480 S 470.0 480 480 481 S 490.0 480 500 480 S 510.0 480 520 480 S 530.0 480 540 480 S 550.0 480 560 480 S 570.0 480 580 480 S 590.0 480 600 487 S 610.0 487 620 518 S 630.0 518 640 530 S 650.0 529 660 529 S 670.0 529 680 530 S 690.0 530 700 530 S 710.0 530 720 530 S 730.0 530 740 530 S 750.0 530 760 530 S 770.0 530 780 530 S 790.0 530 800 530 S 810.0 530 820 530" fill="white" stroke="black" stroke-width="5" /><path d="M 20 550 S 50.0 550 60 550 S 70.0 550 80 550 S 90.0 550 100 550 S 110.0 550 120 550 S 130.0 550 140 550 S 150.0 550 160 550 S 170.0 550 180 550 S 190.0 550 200 550 S 210.0 549 220 549 S 230.0 549 240 550 S 250.0 548 260 548 S 270.0 548 280 549 S 290.0 529 300 529 S 310.0 500 320 500 S 330.0 500 340 503 S 350.0 500 360 500 S 370.0 500 380 500 S 390.0 500 400 502 S 410.0 500 420 500 S 430.0 500 440 500 S 450.0 500 460 500 S 470.0 500 480 500 S 490.0 500 500 500 S 510.0 500 520 500 S 530.0 500 540 500 S 550.0 500 560 501 S 570.0 500 580 500 S 590.0 500 600 500 S 610.0 500 620 510 S 630.0 510 640 538 S 650.0 538 660 550 S 670.0 546 680 546 S 690.0 546 700 550 S 710.0 548 720 548 S 730.0 548 740 550 S 750.0 550 760 550 S 770.0 547 780 547 S 790.0 547 800 550 S 810.0 550 820 550" fill="white" stroke="black" stroke-width="5" /><path d="M 20 570 S 50.0 570 60 570 S 70.0 570 80 570 S 90.0 570 100 570 S 110.0 570 120 570 S 130.0 570 140 570 S 150.0 570 160 570 S 170.0 570 180 570 S 190.0 570 200 570 S 210.0 569 220 569 S 230.0 569 240 570 S 250.0 570 260 570 S 270.0 569 280 569 S 290.0 566 300 566 S 310.0 543 320 543 S 330.0 520 340 520 S 350.0 520 360 520 S 370.0 520 380 520 S 390.0 520 400 520 S 410.0 520 420 521 S 430.0 521 440 521 S 450.0 520 460 520 S 470.0 520 480 520 S 490.0 520 500 520 S 510.0 520 520 520 S 530.0 520 540 520 S 550.0 520 560 520 S 570.0 520 580 521 S 590.0 521 600 525 S 610.0 520 620 520 S 630.0 520 640 525 S 650.0 525 660 556 S 670.0 556 680 570 S 690.0 565 700 565 S 710.0 565 720 569 S 730.0 569 740 570 S 750.0 567 760 567 S 770.0 567 780 570 S 790.0 566 800 566 S 810.0 566 820 570" fill="white" stroke="black" stroke-width="5" /><path d="M 20 590 S 50.0 590 60 590 S 70.0 590 80 590 S 90.0 590 100 590 S 110.0 590 120 590 S 130.0 590 140 590 S 150.0 590 160 590 S 170.0 590 180 590 S 190.0 590 200 590 S 210.0 589 220 589 S 230.0 588 240 588 S 250.0 588 260 590 S 270.0 589 280 589 S 290.0 589 300 590 S 310.0 586 320 586 S 330.0 555 340 555 S 350.0 540 360 540 S 370.0 540 380 540 S 390.0 540 400 540 S 410.0 540 420 540 S 430.0 540 440 540 S 450.0 540 460 540 S 470.0 540 480 541 S 490.0 540 500 540 S 510.0 540 520 540 S 530.0 540 540 541 S 550.0 540 560 540 S 570.0 540 580 540 S 590.0 540 600 540 S 610.0 540 620 540 S 630.0 540 640 540 S 650.0 540 660 545 S 670.0 545 680 576 S 690.0 576 700 589 S 710.0 589 720 590 S 730.0 589 740 589 S 750.0 589 760 590 S 770.0 590 780 590 S 790.0 590 800 590 S 810.0 590 820 590" fill="white" stroke="black" stroke-width="5" /><path d="M 20 610 S 50.0 610 60 610 S 70.0 610 80 610 S 90.0 610 100 610 S 110.0 610 120 610 S 130.0 610 140 610 S 150.0 610 160 610 S 170.0 610 180 610 S 190.0 609 200 609 S 210.0 609 220 610 S 230.0 607 240 607 S 250.0 607 260 610 S 270.0 609 280 609 S 290.0 606 300 606 S 310.0 606 320 610 S 330.0 606 340 606 S 350.0 566 360 566 S 370.0 560 380 560 S 390.0 560 400 561 S 410.0 560 420 560 S 430.0 560 440 560 S 450.0 560 460 560 S 470.0 560 480 560 S 490.0 560 500 560 S 510.0 560 520 561 S 530.0 560 540 560 S 550.0 560 560 561 S 570.0 561 580 562 S 590.0 560 600 560 S 610.0 560 620 561 S 630.0 561 640 565 S 650.0 560 660 560 S 670.0 560 680 565 S 690.0 565 700 592 S 710.0 592 720 610 S 730.0 607 740 607 S 750.0 607 760 610 S 770.0 607 780 607 S 790.0 607 800 610 S 810.0 608 820 608" fill="white" stroke="black" stroke-width="5" /><path d="M 20 630 S 50.0 630 60 630 S 70.0 630 80 630 S 90.0 630 100 630 S 110.0 630 120 630 S 130.0 630 140 630 S 150.0 630 160 630 S 170.0 630 180 630 S 190.0 628 200 628 S 210.0 628 220 630 S 230.0 629 240 629 S 250.0 628 260 628 S 270.0 628 280 630 S 290.0 630 300 630 S 310.0 629 320 629 S 330.0 629 340 630 S 350.0 614 360 614 S 370.0 580 380 580 S 390.0 580 400 580 S 410.0 580 420 580 S 430.0 580 440 580 S 450.0 580 460 580 S 470.0 580 480 580 S 490.0 580 500 582 S 510.0 580 520 580 S 530.0 580 540 580 S 550.0 580 560 580 S 570.0 580 580 581 S 590.0 580 600 580 S 610.0 580 620 580 S 630.0 580 640 580 S 650.0 580 660 581 S 670.0 580 680 580 S 690.0 580 700 582 S 710.0 582 720 617 S 730.0 617 740 630 S 750.0 628 760 628 S 770.0 628 780 628 S 790.0 628 800 629 S 810.0 629 820 630" fill="white" stroke="black" stroke-width="5" /><path d="M 20 650 S 50.0 650 60 650 S 70.0 650 80 650 S 90.0 650 100 650 S 110.0 650 120 650 S 130.0 650 140 650 S 150.0 650 160 650 S 170.0 650 180 650 S 190.0 650 200 650 S 210.0 647 220 647 S 230.0 647 240 650 S 250.0 649 260 649 S 270.0 649 280 650 S 290.0 650 300 650 S 310.0 648 320 648 S 330.0 648 340 648 S 350.0 639 360 639 S 370.0 600 380 600 S 390.0 600 400 601 S 410.0 601 420 601 S 430.0 600 440 600 S 450.0 600 460 600 S 470.0 600 480 600 S 490.0 600 500 600 S 510.0 600 520 600 S 530.0 600 540 603 S 550.0 600 560 600 S 570.0 600 580 600 S 590.0 600 600 600 S 610.0 600 620 601 S 630.0 600 640 600 S 650.0 600 660 601 S 670.0 601 680 601 S 690.0 600 700 600 S 710.0 600 720 613 S 730.0 613 740 647 S 750.0 647 760 650 S 770.0 650 780 650 S 790.0 650 800 650 S 810.0 650 820 650" fill="white" stroke="black" stroke-width="5" /><path d="M 20 670 S 50.0 670 60 670 S 70.0 670 80 670 S 90.0 670 100 670 S 110.0 670 120 670 S 130.0 670 140 670 S 150.0 670 160 670 S 170.0 670 180 670 S 190.0 670 200 670 S 210.0 666 220 666 S 230.0 666 240 669 S 250.0 669 260 670 S 270.0 669 280 669 S 290.0 669 300 669 S 310.0 669 320 669 S 330.0 669 340 670 S 350.0 664 360 664 S 370.0 642 380 642 S 390.0 635 400 635 S 410.0 627 420 627 S 430.0 623 440 623 S 450.0 620 460 620 S 470.0 620 480 622 S 490.0 621 500 621 S 510.0 621 520 621 S 530.0 620 540 620 S 550.0 620 560 620 S 570.0 620 580 620 S 590.0 620 600 621 S 610.0 620 620 620 S 630.0 620 640 620 S 650.0 620 660 620 S 670.0 620 680 620 S 690.0 620 700 625 S 710.0 620 720 620 S 730.0 620 740 648 S 750.0 648 760 670 S 770.0 669 780 669 S 790.0 669 800 670 S 810.0 668 820 668" fill="white" stroke="black" stroke-width="5" /><path d="M 20 690 S 50.0 690 60 690 S 70.0 690 80 690 S 90.0 690 100 690 S 110.0 690 120 690 S 130.0 690 140 690 S 150.0 690 160 690 S 170.0 690 180 690 S 190.0 688 200 688 S 210.0 688 220 690 S 230.0 690 240 690 S 250.0 688 260 688 S 270.0 688 280 690 S 290.0 690 300 690 S 310.0 689 320 689 S 330.0 689 340 689 S 350.0 689 360 690 S 370.0 689 380 689 S 390.0 689 400 690 S 410.0 688 420 688 S 430.0 675 440 675 S 450.0 643 460 643 S 470.0 640 480 640 S 490.0 640 500 640 S 510.0 640 520 640 S 530.0 640 540 641 S 550.0 641 560 642 S 570.0 640 580 640 S 590.0 640 600 640 S 610.0 640 620 640 S 630.0 640 640 640 S 650.0 640 660 640 S 670.0 640 680 640 S 690.0 640 700 640 S 710.0 640 720 640 S 730.0 640 740 660 S 750.0 660 760 689 S 770.0 686 780 686 S 790.0 686 800 690 S 810.0 689 820 689" fill="white" stroke="black" stroke-width="5" /><path d="M 20 710 S 50.0 710 60 710 S 70.0 710 80 710 S 90.0 710 100 710 S 110.0 710 120 710 S 130.0 710 140 710 S 150.0 710 160 710 S 170.0 710 180 710 S 190.0 710 200 710 S 210.0 710 220 710 S 230.0 710 240 710 S 250.0 710 260 710 S 270.0 710 280 710 S 290.0 710 300 710 S 310.0 710 320 710 S 330.0 710 340 710 S 350.0 710 360 710 S 370.0 709 380 709 S 390.0 696 400 696 S 410.0 696 420 701 S 430.0 701 440 708 S 450.0 705 460 705 S 470.0 698 480 698 S 490.0 672 500 672 S 510.0 660 520 660 S 530.0 660 540 660 S 550.0 660 560 661 S 570.0 660 580 660 S 590.0 660 600 660 S 610.0 660 620 660 S 630.0 660 640 660 S 650.0 660 660 660 S 670.0 660 680 660 S 690.0 660 700 661 S 710.0 661 720 664 S 730.0 664 740 710 S 750.0 710 760 710 S 770.0 708 780 708 S 790.0 708 800 710 S 810.0 708 820 708" fill="white" stroke="black" stroke-width="5" /><path d="M 20 730 S 50.0 730 60 730 S 70.0 730 80 730 S 90.0 730 100 730 S 110.0 730 120 730 S 130.0 730 140 730 S 150.0 730 160 730 S 170.0 730 180 730 S 190.0 730 200 730 S 210.0 730 220 730 S 230.0 730 240 730 S 250.0 730 260 730 S 270.0 730 280 730 S 290.0 730 300 730 S 310.0 730 320 730 S 330.0 730 340 730 S 350.0 728 360 728 S 370.0 728 380 730 S 390.0 728 400 728 S 410.0 728 420 730 S 430.0 730 440 730 S 450.0 730 460 730 S 470.0 730 480 730 S 490.0 720 500 720 S 510.0 706 520 706 S 530.0 683 540 683 S 550.0 680 560 680 S 570.0 680 580 680 S 590.0 680 600 680 S 610.0 680 620 681 S 630.0 680 640 680 S 650.0 680 660 680 S 670.0 680 680 682 S 690.0 680 700 680 S 710.0 680 720 693 S 730.0 693 740 728 S 750.0 728 760 730 S 770.0 726 780 726 S 790.0 726 800 730 S 810.0 730 820 730" fill="white" stroke="black" stroke-width="5" /><path d="M 20 750 S 50.0 750 60 750 S 70.0 750 80 750 S 90.0 750 100 750 S 110.0 750 120 750 S 130.0 750 140 750 S 150.0 750 160 750 S 170.0 750 180 750 S 190.0 750 200 750 S 210.0 750 220 750 S 230.0 750 240 750 S 250.0 750 260 750 S 270.0 750 280 750 S 290.0 750 300 750 S 310.0 750 320 750 S 330.0 750 340 750 S 350.0 749 360 749 S 370.0 749 380 750 S 390.0 749 400 749 S 410.0 749 420 749 S 430.0 746 440 746 S 450.0 746 460 746 S 470.0 746 480 748 S 490.0 744 500 744 S 510.0 744 520 750 S 530.0 731 540 731 S 550.0 705 560 705 S 570.0 700 580 700 S 590.0 700 600 700 S 610.0 700 620 700 S 630.0 700 640 702 S 650.0 700 660 700 S 670.0 700 680 700 S 690.0 700 700 703 S 710.0 703 720 732 S 730.0 732 740 749 S 750.0 748 760 748 S 770.0 747 780 747 S 790.0 747 800 750 S 810.0 749 820 749" fill="white" stroke="black" stroke-width="5" /><path d="M 20 770 S 50.0 770 60 770 S 70.0 770 80 770 S 90.0 770 100 770 S 110.0 770 120 770 S 130.0 770 140 770 S 150.0 770 160 770 S 170.0 770 180 770 S 190.0 770 200 770 S 210.0 770 220 770 S 230.0 770 240 770 S 250.0 770 260 770 S 270.0 770 280 770 S 290.0 770 300 770 S 310.0 770 320 770 S 330.0 770 340 770 S 350.0 770 360 770 S 370.0 769 380 769 S 390.0 769 400 770 S 410.0 770 420 770 S 430.0 770 440 770 S 450.0 770 460 770 S 470.0 768 480 768 S 490.0 765 500 765 S 510.0 765 520 769 S 530.0 769 540 770 S 550.0 745 560 745 S 570.0 720 580 720 S 590.0 720 600 723 S 610.0 720 620 720 S 630.0 720 640 722 S 650.0 720 660 720 S 670.0 720 680 720 S 690.0 720 700 720 S 710.0 720 720 740 S 730.0 740 740 770 S 750.0 770 760 770 S 770.0 770 780 770 S 790.0 767 800 767 S 810.0 767 820 769" fill="white" stroke="black" stroke-width="5" /><path d="M 20 790 S 50.0 790 60 790 S 70.0 790 80 790 S 90.0 790 100 790 S 110.0 790 120 790 S 130.0 790 140 790 S 150.0 790 160 790 S 170.0 790 180 790 S 190.0 790 200 790 S 210.0 790 220 790 S 230.0 790 240 790 S 250.0 790 260 790 S 270.0 790 280 790 S 290.0 790 300 790 S 310.0 790 320 790 S 330.0 790 340 790 S 350.0 788 360 788 S 370.0 786 380 786 S 390.0 786 400 789 S 410.0 789 420 790 S 430.0 788 440 788 S 450.0 788 460 789 S 470.0 787 480 787 S 490.0 787 500 787 S 510.0 786 520 786 S 530.0 786 540 790 S 550.0 780 560 780 S 570.0 740 580 740 S 590.0 740 600 740 S 610.0 740 620 741 S 630.0 740 640 740 S 650.0 740 660 743 S 670.0 743 680 747 S 690.0 745 700 745 S 710.0 745 720 758 S 730.0 758 740 786 S 750.0 786 760 787 S 770.0 787 780 790 S 790.0 789 800 789 S 810.0 789 820 790" fill="white" stroke="black" stroke-width="5" /><path d="M 20 810 S 50.0 810 60 810 S 70.0 810 80 810 S 90.0 810 100 810 S 110.0 810 120 810 S 130.0 810 140 810 S 150.0 810 160 810 S 170.0 810 180 810 S 190.0 810 200 810 S 210.0 810 220 810 S 230.0 810 240 810 S 250.0 810 260 810 S 270.0 810 280 810 S 290.0 810 300 810 S 310.0 810 320 810 S 330.0 810 340 810 S 350.0 810 360 810 S 370.0 809 380 809 S 390.0 809 400 810 S 410.0 810 420 810 S 430.0 809 440 809 S 450.0 809 460 810 S 470.0 809 480 809 S 490.0 808 500 808 S 510.0 808 520 810 S 530.0 807 540 807 S 550.0 807 560 809 S 570.0 791 580 791 S 590.0 791 600 794 S 610.0 794 620 797 S 630.0 797 640 803 S 650.0 803 660 805 S 670.0 804 680 804 S 690.0 804 700 810 S 710.0 810 720 810 S 730.0 810 740 810 S 750.0 807 760 807 S 770.0 807 780 808 S 790.0 808 800 810 S 810.0 806 820 806" fill="white" stroke="black" stroke-width="5" /><path d="M 20 830 S 50.0 830 60 830 S 70.0 830 80 830 S 90.0 830 100 830 S 110.0 830 120 830 S 130.0 830 140 830 S 150.0 830 160 830 S 170.0 830 180 830 S 190.0 830 200 830 S 210.0 830 220 830 S 230.0 830 240 830 S 250.0 830 260 830 S 270.0 830 280 830 S 290.0 830 300 830 S 310.0 830 320 830 S 330.0 830 340 830 S 350.0 830 360 830 S 370.0 828 380 828 S 390.0 827 400 827 S 410.0 827 420 828 S 430.0 828 440 829 S 450.0 829 460 830 S 470.0 830 480 830 S 490.0 829 500 829 S 510.0 829 520 830 S 530.0 828 540 828 S 550.0 828 560 828 S 570.0 828 580 830 S 590.0 830 600 830 S 610.0 826 620 826 S 630.0 826 640 830 S 650.0 824 660 824 S 670.0 824 680 830 S 690.0 829 700 829 S 710.0 827 720 827 S 730.0 827 740 827 S 750.0 827 760 830 S 770.0 829 780 829 S 790.0 829 800 830 S 810.0 830 820 830" fill="white" stroke="black" stroke-width="5" /><path d="M 20 850 S 50.0 850 60 850 S 70.0 850 80 850 S 90.0 850 100 850 S 110.0 850 120 850 S 130.0 850 140 850 S 150.0 850 160 850 S 170.0 850 180 850 S 190.0 850 200 850 S 210.0 850 220 850 S 230.0 850 240 850 S 250.0 850 260 850 S 270.0 850 280 850 S 290.0 850 300 850 S 310.0 850 320 850 S 330.0 850 340 850 S 350.0 850 360 850 S 370.0 850 380 850 S 390.0 850 400 850 S 410.0 850 420 850 S 430.0 849 440 849 S 450.0 848 460 848 S 470.0 848 480 850 S 490.0 848 500 848 S 510.0 848 520 848 S 530.0 848 540 850 S 550.0 850 560 850 S 570.0 849 580 849 S 590.0 846 600 846 S 610.0 846 620 850 S 630.0 850 640 850 S 650.0 850 660 850 S 670.0 848 680 848 S 690.0 848 700 850 S 710.0 850 720 850 S 730.0 848 740 848 S 750.0 848 760 850 S 770.0 850 780 850 S 790.0 847 800 847 S 810.0 847 820 850" fill="white" stroke="black" stroke-width="5" /></svg>