<?xml version="1.0" encoding="utf-8" ?>
<svg baseProfile="full" height="100%" version="1.1" width="100%" xmlns="http://www.w3.org/2000/svg" xmlns:ev="http://www.w3.org/2001/xml-events" xmlns:xlink="http://www.w3.org/1999/xlink"><defs /><polyline fill="white" points="30,150 30,150.0 60,149.05882352941177 90,149.52941176470588 120,150.0 150,150.0 180,148.58823529411765 210,147.6470588235294 240,148.58823529411765 270,147.6470588235294 300,147.6470588235294 330,150.0 360,150.0 390,150.0 420,149.52941176470588 450,145.29411764705884 480,150.0 510,150.0 540,144.3529411764706 570,150.0 600,150.0 630,147.6470588235294 660,145.76470588235293 690,150.0 720,150.0 750,149.52941176470588 780,149.52941176470588 810,149.52941176470588 840,150.0 870,150.0 900,150.0 930,150.0 960,150.0 990,150.0 1020,150.0 1050,150.0 1080,150.0 1110,150.0 1140,150.0 1170,150.0 1200,150.0 1230,150.0 1260,150.0 1290,150.0 1320,150.0 1350,150.0 1380,150.0 1410,150.0 1440,150.0 1470,150.0 1500,150.0 1560,150" stroke="black" stroke-width="5" /><polyline fill="white" points="30,180 30,180.0 60,180.0 90,179.05882352941177 120,178.58823529411765 150,179.52941176470588 180,180.0 210,180.0 240,180.0 270,180.0 300,180.0 330,180.0 360,175.76470588235293 390,178.58823529411765 420,180.0 450,176.70588235294116 480,179.05882352941177 510,180.0 540,179.52941176470588 570,180.0 600,178.58823529411765 630,179.52941176470588 660,180.0 690,178.11764705882354 720,175.29411764705884 750,179.52941176470588 780,179.52941176470588 810,179.52941176470588 840,180.0 870,180.0 900,180.0 930,180.0 960,180.0 990,180.0 1020,180.0 1050,180.0 1080,180.0 1110,180.0 1140,180.0 1170,180.0 1200,180.0 1230,180.0 1260,180.0 1290,180.0 1320,180.0 1350,180.0 1380,180.0 1410,180.0 1440,180.0 1470,180.0 1500,180.0 1560,180" stroke="black" stroke-width="5" /><polyline fill="white" points="30,210 30,210.0 60,210.0 90,209.52941176470588 120,207.1764705882353 150,209.05882352941177 180,210.0 210,209.52941176470588 240,204.8235294117647 270,205.29411764705884 300,206.23529411764707 330,209.52941176470588 360,202.94117647058823 390,203.88235294117646 420,210.0 450,205.29411764705884 480,203.88235294117646 510,204.8235294117647 540,204.8235294117647 570,202.94117647058823 600,200.58823529411765 630,205.29411764705884 660,205.29411764705884 690,200.11764705882354 720,210.0 750,209.52941176470588 780,209.52941176470588 810,209.52941176470588 840,210.0 870,210.0 900,210.0 930,210.0 960,210.0 990,210.0 1020,210.0 1050,210.0 1080,210.0 1110,210.0 1140,210.0 1170,210.0 1200,210.0 1230,210.0 1260,210.0 1290,210.0 1320,210.0 1350,210.0 1380,210.0 1410,210.0 1440,210.0 1470,210.0 1500,210.0 1560,210" stroke="black" stroke-width="5" /><polyline fill="white" points="30,240 30,237.1764705882353 60,240.0 90,240.0 120,238.58823529411765 150,240.0 180,240.0 210,235.29411764705884 240,224.94117647058823 270,131.2941176470588 300,129.88235294117646 330,137.88235294117646 360,135.05882352941177 390,131.76470588235293 420,134.58823529411765 450,132.7058823529412 480,135.05882352941177 510,136.0 540,135.52941176470588 570,132.7058823529412 600,136.47058823529412 630,138.8235294117647 660,130.8235294117647 690,135.52941176470588 720,194.3529411764706 750,239.52941176470588 780,239.52941176470588 810,239.52941176470588 840,240.0 870,240.0 900,240.0 930,240.0 960,240.0 990,240.0 1020,240.0 1050,240.0 1080,240.0 1110,240.0 1140,240.0 1170,240.0 1200,240.0 1230,240.0 1260,240.0 1290,240.0 1320,240.0 1350,240.0 1380,240.0 1410,240.0 1440,240.0 1470,240.0 1500,240.0 1560,240" stroke="black" stroke-width="5" /><polyline fill="white" points="30,270 30,267.1764705882353 60,270.0 90,270.0 120,268.5882352941177 150,270.0 180,270.0 210,265.29411764705884 240,254.94117647058823 270,161.76470588235293 300,150.0 330,150.0 360,150.94117647058823 390,150.0 420,150.0 450,150.0 480,150.94117647058823 510,150.0 540,150.94117647058823 570,150.0 600,151.41176470588235 630,152.35294117647058 660,150.0 690,153.2941176470588 720,233.29411764705884 750,269.52941176470586 780,269.52941176470586 810,269.52941176470586 840,270.0 870,270.0 900,270.0 930,270.0 960,270.0 990,270.0 1020,270.0 1050,270.0 1080,270.0 1110,270.0 1140,270.0 1170,270.0 1200,270.0 1230,270.0 1260,270.0 1290,270.0 1320,270.0 1350,270.0 1380,270.0 1410,270.0 1440,270.0 1470,270.0 1500,270.0 1560,270" stroke="black" stroke-width="5" /><polyline fill="white" points="30,300 30,300.0 60,300.0 90,299.52941176470586 120,297.1764705882353 150,299.05882352941177 180,300.0 210,299.52941176470586 240,294.8235294117647 270,217.64705882352942 300,185.64705882352942 330,180.0 360,182.8235294117647 390,182.35294117647058 420,182.8235294117647 450,180.47058823529412 480,182.35294117647058 510,180.0 540,183.76470588235293 570,180.0 600,180.0 630,180.0 660,183.2941176470588 690,183.76470588235293 720,258.11764705882354 750,299.52941176470586 780,299.52941176470586 810,299.52941176470586 840,300.0 870,300.0 900,300.0 930,300.0 960,300.0 990,300.0 1020,300.0 1050,300.0 1080,300.0 1110,300.0 1140,300.0 1170,300.0 1200,300.0 1230,300.0 1260,300.0 1290,300.0 1320,300.0 1350,300.0 1380,300.0 1410,300.0 1440,300.0 1470,300.0 1500,300.0 1560,300" stroke="black" stroke-width="5" /><polyline fill="white" points="30,330 30,330.0 60,330.0 90,329.05882352941177 120,328.5882352941177 150,329.52941176470586 180,330.0 210,330.0 240,330.0 270,242.0 300,211.88235294117646 330,210.0 360,210.47058823529412 390,210.0 420,210.47058823529412 450,210.0 480,210.0 510,210.0 540,212.8235294117647 570,210.0 600,210.0 630,210.0 660,214.7058823529412 690,210.94117647058823 720,285.29411764705884 750,329.52941176470586 780,329.52941176470586 810,329.52941176470586 840,330.0 870,330.0 900,330.0 930,330.0 960,330.0 990,330.0 1020,330.0 1050,330.0 1080,330.0 1110,330.0 1140,330.0 1170,330.0 1200,330.0 1230,330.0 1260,330.0 1290,330.0 1320,330.0 1350,330.0 1380,330.0 1410,330.0 1440,330.0 1470,330.0 1500,330.0 1560,330" stroke="black" stroke-width="5" /><polyline fill="white" points="30,360 30,360.0 60,359.05882352941177 90,359.52941176470586 120,360.0 150,360.0 180,358.5882352941177 210,357.6470588235294 240,358.5882352941177 270,254.11764705882354 300,240.0 330,242.8235294117647 360,245.1764705882353 390,240.0 420,240.0 450,241.41176470588235 480,240.0 510,241.41176470588235 540,240.0 570,240.0 600,244.7058823529412 630,240.0 660,240.0 690,240.0 720,323.29411764705884 750,359.52941176470586 780,359.52941176470586 810,359.52941176470586 840,360.0 870,360.0 900,360.0 930,360.0 960,360.0 990,360.0 1020,360.0 1050,360.0 1080,360.0 1110,360.0 1140,360.0 1170,360.0 1200,360.0 1230,360.0 1260,360.0 1290,360.0 1320,360.0 1350,360.0 1380,360.0 1410,360.0 1440,360.0 1470,360.0 1500,360.0 1560,360" stroke="black" stroke-width="5" /><polyline fill="white" points="30,390 30,388.11764705882354 60,390.0 90,387.6470588235294 120,390.0 150,390.0 180,387.1764705882353 210,388.5882352941177 240,388.5882352941177 270,281.7647058823529 300,270.0 330,270.94117647058823 360,272.8235294117647 390,270.0 420,270.47058823529414 450,270.47058823529414 480,270.0 510,270.0 540,270.47058823529414 570,270.0 600,270.47058823529414 630,270.0 660,273.29411764705884 690,270.0 720,350.94117647058823 750,389.52941176470586 780,389.52941176470586 810,389.52941176470586 840,390.0 870,390.0 900,390.0 930,390.0 960,390.0 990,390.0 1020,390.0 1050,390.0 1080,390.0 1110,390.0 1140,390.0 1170,390.0 1200,390.0 1230,390.0 1260,390.0 1290,390.0 1320,390.0 1350,390.0 1380,390.0 1410,390.0 1440,390.0 1470,390.0 1500,390.0 1560,390" stroke="black" stroke-width="5" /><polyline fill="white" points="30,420 30,417.6470588235294 60,420.0 90,420.0 120,416.70588235294116 150,420.0 180,420.0 210,420.0 240,362.5882352941176 270,302.3529411764706 300,302.8235294117647 330,300.0 360,300.0 390,301.4117647058824 420,300.94117647058823 450,302.3529411764706 480,300.0 510,300.0 540,300.47058823529414 570,300.0 600,300.47058823529414 630,300.0 660,303.29411764705884 690,300.0 720,380.94117647058823 750,419.52941176470586 780,419.52941176470586 810,419.52941176470586 840,420.0 870,420.0 900,420.0 930,420.0 960,420.0 990,420.0 1020,420.0 1050,420.0 1080,420.0 1110,420.0 1140,420.0 1170,420.0 1200,420.0 1230,420.0 1260,420.0 1290,420.0 1320,420.0 1350,420.0 1380,420.0 1410,420.0 1440,420.0 1470,420.0 1500,420.0 1560,420" stroke="black" stroke-width="5" /><polyline fill="white" points="30,450 30,450.0 60,450.0 90,450.0 120,445.7647058823529 150,450.0 180,448.5882352941177 210,448.11764705882354 240,354.0 270,330.0 300,338.94117647058823 330,330.0 360,330.0 390,334.70588235294116 420,330.0 450,330.94117647058823 480,330.0 510,330.0 540,330.47058823529414 570,330.0 600,330.47058823529414 630,330.0 660,333.29411764705884 690,330.0 720,410.94117647058823 750,449.52941176470586 780,449.52941176470586 810,449.52941176470586 840,450.0 870,450.0 900,450.0 930,450.0 960,450.0 990,450.0 1020,450.0 1050,450.0 1080,450.0 1110,450.0 1140,450.0 1170,450.0 1200,450.0 1230,450.0 1260,450.0 1290,450.0 1320,450.0 1350,450.0 1380,450.0 1410,450.0 1440,450.0 1470,450.0 1500,450.0 1560,450" stroke="black" stroke-width="5" /><polyline fill="white" points="30,480 30,480.0 60,475.29411764705884 90,480.0 120,480.0 150,480.0 180,475.29411764705884 210,477.6470588235294 240,415.52941176470586 270,361.4117647058824 300,361.88235294117646 330,360.0 360,361.88235294117646 390,360.94117647058823 420,360.0 450,360.0 480,360.47058823529414 510,360.0 540,360.47058823529414 570,360.0 600,360.47058823529414 630,360.0 660,363.29411764705884 690,360.0 720,440.94117647058823 750,479.52941176470586 780,479.52941176470586 810,479.52941176470586 840,480.0 870,480.0 900,480.0 930,480.0 960,480.0 990,480.0 1020,480.0 1050,480.0 1080,480.0 1110,480.0 1140,480.0 1170,480.0 1200,480.0 1230,480.0 1260,480.0 1290,480.0 1320,480.0 1350,480.0 1380,480.0 1410,480.0 1440,480.0 1470,480.0 1500,480.0 1560,480" stroke="black" stroke-width="5" /><polyline fill="white" points="30,510 30,510.0 60,503.88235294117646 90,510.0 120,510.0 150,510.0 180,510.0 210,509.52941176470586 240,501.52941176470586 270,433.29411764705884 300,390.0 330,390.0 360,391.4117647058824 390,390.0 420,391.4117647058824 450,390.0 480,393.29411764705884 510,390.0 540,390.47058823529414 570,390.0 600,390.47058823529414 630,390.0 660,393.29411764705884 690,390.0 720,470.94117647058823 750,509.52941176470586 780,509.52941176470586 810,509.52941176470586 840,510.0 870,510.0 900,510.0 930,510.0 960,510.0 990,510.0 1020,510.0 1050,510.0 1080,510.0 1110,510.0 1140,510.0 1170,510.0 1200,510.0 1230,510.0 1260,510.0 1290,510.0 1320,510.0 1350,510.0 1380,510.0 1410,510.0 1440,510.0 1470,510.0 1500,510.0 1560,510" stroke="black" stroke-width="5" /><polyline fill="white" points="30,540 30,540.0 60,539.5294117647059 90,540.0 120,537.1764705882352 150,539.0588235294117 180,540.0 210,535.2941176470588 240,540.0 270,524.9411764705883 300,437.88235294117646 330,421.88235294117646 360,421.88235294117646 390,420.0 420,427.05882352941177 450,420.0 480,420.47058823529414 510,420.0 540,420.47058823529414 570,420.0 600,420.47058823529414 630,420.0 660,423.29411764705884 690,420.0 720,500.94117647058823 750,539.5294117647059 780,539.5294117647059 810,539.5294117647059 840,540.0 870,540.0 900,540.0 930,540.0 960,540.0 990,540.0 1020,540.0 1050,540.0 1080,540.0 1110,540.0 1140,540.0 1170,540.0 1200,540.0 1230,540.0 1260,540.0 1290,540.0 1320,540.0 1350,540.0 1380,540.0 1410,540.0 1440,540.0 1470,540.0 1500,540.0 1560,540" stroke="black" stroke-width="5" /><polyline fill="white" points="30,570 30,570.0 60,570.0 90,570.0 120,563.4117647058823 150,569.5294117647059 180,569.5294117647059 210,566.2352941176471 240,566.7058823529412 270,570.0 300,489.05882352941177 330,453.29411764705884 360,451.88235294117646 390,452.3529411764706 420,455.1764705882353 450,450.0 480,450.0 510,450.0 540,450.47058823529414 570,450.0 600,450.47058823529414 630,450.0 660,453.29411764705884 690,450.0 720,530.9411764705883 750,569.5294117647059 780,569.5294117647059 810,569.5294117647059 840,570.0 870,570.0 900,570.0 930,570.0 960,570.0 990,570.0 1020,570.0 1050,570.0 1080,570.0 1110,570.0 1140,570.0 1170,570.0 1200,570.0 1230,570.0 1260,570.0 1290,570.0 1320,570.0 1350,570.0 1380,570.0 1410,570.0 1440,570.0 1470,570.0 1500,570.0 1560,570" stroke="black" stroke-width="5" /><polyline fill="white" points="30,600 30,597.6470588235294 60,596.7058823529412 90,600.0 120,596.2352941176471 150,600.0 180,593.4117647058823 210,600.0 240,597.1764705882352 270,592.9411764705883 300,521.8823529411765 330,480.0 360,480.0 390,485.1764705882353 420,480.0 450,480.0 480,484.2352941176471 510,480.0 540,480.47058823529414 570,480.0 600,480.47058823529414 630,480.0 660,483.29411764705884 690,480.0 720,560.9411764705883 750,599.5294117647059 780,599.5294117647059 810,599.5294117647059 840,600.0 870,600.0 900,600.0 930,600.0 960,600.0 990,600.0 1020,600.0 1050,600.0 1080,600.0 1110,600.0 1140,600.0 1170,600.0 1200,600.0 1230,600.0 1260,600.0 1290,600.0 1320,600.0 1350,600.0 1380,600.0 1410,600.0 1440,600.0 1470,600.0 1500,600.0 1560,600" stroke="black" stroke-width="5" /><polyline fill="white" points="30,630 30,630.0 60,630.0 90,630.0 120,630.0 150,630.0 180,630.0 210,630.0 240,630.0 270,630.0 300,568.8235294117648 330,513.7647058823529 360,510.94117647058823 390,510.0 420,510.0 450,517.0588235294117 480,510.0 510,510.47058823529414 540,510.0 570,513.7647058823529 600,512.8235294117648 630,510.47058823529414 660,510.0 690,511.4117647058824 720,597.0588235294117 750,629.0588235294117 780,628.1176470588235 810,630.0 840,630.0 870,625.7647058823529 900,630.0 930,630.0 960,627.6470588235294 990,630.0 1020,630.0 1050,630.0 1080,630.0 1110,630.0 1140,630.0 1170,630.0 1200,630.0 1230,630.0 1260,630.0 1290,630.0 1320,630.0 1350,630.0 1380,630.0 1410,630.0 1440,630.0 1470,630.0 1500,630.0 1560,630" stroke="black" stroke-width="5" /><polyline fill="white" points="30,660 30,660.0 60,660.0 90,660.0 120,660.0 150,660.0 180,660.0 210,660.0 240,660.0 270,660.0 300,621.8823529411765 330,540.0 360,543.2941176470588 390,541.8823529411765 420,540.0 450,540.0 480,544.2352941176471 510,541.4117647058823 540,540.4705882352941 570,543.2941176470588 600,540.9411764705883 630,540.0 660,541.8823529411765 690,540.0 720,593.6470588235294 750,660.0 780,656.7058823529412 810,660.0 840,658.5882352941177 870,660.0 900,654.8235294117648 930,660.0 960,660.0 990,660.0 1020,660.0 1050,660.0 1080,660.0 1110,660.0 1140,660.0 1170,660.0 1200,660.0 1230,660.0 1260,660.0 1290,660.0 1320,660.0 1350,660.0 1380,660.0 1410,660.0 1440,660.0 1470,660.0 1500,660.0 1560,660" stroke="black" stroke-width="5" /><polyline fill="white" points="30,690 30,690.0 60,690.0 90,690.0 120,690.0 150,690.0 180,690.0 210,690.0 240,690.0 270,690.0 300,678.2352941176471 330,605.7647058823529 360,570.0 390,573.7647058823529 420,571.4117647058823 450,570.0 480,571.8823529411765 510,570.0 540,571.8823529411765 570,570.0 600,570.0 630,570.0 660,572.8235294117648 690,570.0 720,583.6470588235294 750,627.4117647058823 780,690.0 810,687.1764705882352 840,684.8235294117648 870,690.0 900,690.0 930,684.8235294117648 960,690.0 990,690.0 1020,690.0 1050,690.0 1080,690.0 1110,690.0 1140,690.0 1170,690.0 1200,690.0 1230,690.0 1260,690.0 1290,690.0 1320,690.0 1350,690.0 1380,690.0 1410,690.0 1440,690.0 1470,690.0 1500,690.0 1560,690" stroke="black" stroke-width="5" /><polyline fill="white" points="30,720 30,720.0 60,720.0 90,720.0 120,720.0 150,720.0 180,720.0 210,720.0 240,720.0 270,714.3529411764706 300,720.0 330,703.0588235294117 360,630.1176470588235 390,604.7058823529412 420,600.0 450,600.9411764705883 480,600.0 510,600.0 540,601.4117647058823 570,600.0 600,600.0 630,600.0 660,601.8823529411765 690,600.0 720,600.0 750,608.9411764705883 780,644.2352941176471 810,720.0 840,718.1176470588235 870,719.0588235294117 900,720.0 930,720.0 960,716.7058823529412 990,720.0 1020,720.0 1050,720.0 1080,720.0 1110,720.0 1140,720.0 1170,720.0 1200,720.0 1230,720.0 1260,720.0 1290,720.0 1320,720.0 1350,720.0 1380,720.0 1410,720.0 1440,720.0 1470,720.0 1500,720.0 1560,720" stroke="black" stroke-width="5" /><polyline fill="white" points="30,750 30,750.0 60,750.0 90,750.0 120,750.0 150,750.0 180,750.0 210,750.0 240,750.0 270,750.0 300,750.0 330,750.0 360,729.7647058823529 390,647.8823529411765 420,630.0 450,635.1764705882352 480,633.7647058823529 510,630.0 540,631.8823529411765 570,630.0 600,631.4117647058823 630,632.3529411764706 660,630.0 690,634.2352941176471 720,630.0 750,630.0 780,635.1764705882352 810,671.4117647058823 840,748.5882352941177 870,750.0 900,746.7058823529412 930,744.3529411764706 960,750.0 990,750.0 1020,750.0 1050,750.0 1080,750.0 1110,750.0 1140,750.0 1170,750.0 1200,750.0 1230,750.0 1260,750.0 1290,750.0 1320,750.0 1350,750.0 1380,750.0 1410,750.0 1440,750.0 1470,750.0 1500,750.0 1560,750" stroke="black" stroke-width="5" /><polyline fill="white" points="30,780 30,780.0 60,780.0 90,780.0 120,780.0 150,780.0 180,780.0 210,780.0 240,780.0 270,780.0 300,778.1176470588235 330,777.6470588235294 360,780.0 390,713.1764705882352 420,660.4705882352941 450,692.9411764705883 480,660.0 510,660.0 540,660.4705882352941 570,660.9411764705883 600,660.0 630,661.8823529411765 660,660.0 690,661.4117647058823 720,660.9411764705883 750,660.0 780,668.0 810,660.0 840,693.8823529411765 870,772.9411764705883 900,774.8235294117648 930,780.0 960,780.0 990,780.0 1020,780.0 1050,780.0 1080,780.0 1110,780.0 1140,780.0 1170,780.0 1200,780.0 1230,780.0 1260,780.0 1290,780.0 1320,780.0 1350,780.0 1380,780.0 1410,780.0 1440,780.0 1470,780.0 1500,780.0 1560,780" stroke="black" stroke-width="5" /><polyline fill="white" points="30,810 30,810.0 60,810.0 90,810.0 120,810.0 150,810.0 180,810.0 210,810.0 240,810.0 270,810.0 300,804.8235294117648 330,810.0 360,806.2352941176471 390,786.4705882352941 420,741.7647058823529 450,752.5882352941177 480,692.8235294117648 510,690.0 540,690.0 570,692.3529411764706 600,690.0 630,691.4117647058823 660,690.0 690,690.0 720,690.4705882352941 750,697.5294117647059 780,690.0 810,697.5294117647059 840,690.0 870,708.8235294117648 900,797.7647058823529 930,804.8235294117648 960,806.2352941176471 990,810.0 1020,810.0 1050,810.0 1080,810.0 1110,810.0 1140,810.0 1170,810.0 1200,810.0 1230,810.0 1260,810.0 1290,810.0 1320,810.0 1350,810.0 1380,810.0 1410,810.0 1440,810.0 1470,810.0 1500,810.0 1560,810" stroke="black" stroke-width="5" /><polyline fill="white" points="30,840 30,840.0 60,840.0 90,840.0 120,840.0 150,840.0 180,840.0 210,840.0 240,840.0 270,840.0 300,836.7058823529412 330,840.0 360,840.0 390,840.0 420,835.2941176470588 450,787.2941176470588 480,746.8235294117648 510,720.4705882352941 540,720.4705882352941 570,725.6470588235294 600,720.0 630,725.1764705882352 660,722.3529411764706 690,720.0 720,721.4117647058823 750,720.0 780,721.4117647058823 810,720.4705882352941 840,722.8235294117648 870,720.0 900,740.7058823529412 930,817.4117647058823 960,837.1764705882352 990,840.0 1020,840.0 1050,840.0 1080,840.0 1110,840.0 1140,840.0 1170,840.0 1200,840.0 1230,840.0 1260,840.0 1290,840.0 1320,840.0 1350,840.0 1380,840.0 1410,840.0 1440,840.0 1470,840.0 1500,840.0 1560,840" stroke="black" stroke-width="5" /><polyline fill="white" points="30,870 30,870.0 60,870.0 90,870.0 120,870.0 150,870.0 180,870.0 210,870.0 240,870.0 270,869.5294117647059 300,870.0 330,870.0 360,868.5882352941177 390,867.1764705882352 420,868.5882352941177 450,789.5294117647059 480,784.8235294117648 510,751.8823529411765 540,750.0 570,752.8235294117648 600,750.0 630,750.0 660,752.8235294117648 690,750.0 720,750.0 750,750.0 780,750.4705882352941 810,752.3529411764706 840,750.0 870,752.8235294117648 900,750.0 930,768.3529411764706 960,837.5294117647059 990,870.0 1020,870.0 1050,869.0588235294117 1080,870.0 1110,869.0588235294117 1140,869.5294117647059 1170,870.0 1200,870.0 1230,870.0 1260,870.0 1290,870.0 1320,870.0 1350,870.0 1380,870.0 1410,870.0 1440,870.0 1470,870.0 1500,870.0 1560,870" stroke="black" stroke-width="5" /><polyline fill="white" points="30,900 30,900.0 60,900.0 90,900.0 120,900.0 150,900.0 180,900.0 210,900.0 240,900.0 270,900.0 300,900.0 330,898.5882352941177 360,899.0588235294117 390,900.0 420,900.0 450,831.7647058823529 480,780.0 510,786.1176470588235 540,780.0 570,780.0 600,784.7058823529412 630,780.0 660,780.0 690,780.4705882352941 720,781.4117647058823 750,780.0 780,781.4117647058823 810,780.0 840,780.0 870,782.3529411764706 900,780.9411764705883 930,780.0 960,790.8235294117648 990,865.1764705882352 1020,885.8823529411765 1050,900.0 1080,899.5294117647059 1110,893.8823529411765 1140,900.0 1170,900.0 1200,897.6470588235294 1230,900.0 1260,900.0 1290,900.0 1320,900.0 1350,900.0 1380,900.0 1410,900.0 1440,900.0 1470,900.0 1500,900.0 1560,900" stroke="black" stroke-width="5" /><polyline fill="white" points="30,930 30,930.0 60,930.0 90,930.0 120,930.0 150,930.0 180,930.0 210,930.0 240,930.0 270,928.1176470588235 300,930.0 330,928.1176470588235 360,930.0 390,928.5882352941177 420,929.5294117647059 450,906.0 480,841.5294117647059 510,810.0 540,813.7647058823529 570,810.0 600,812.8235294117648 630,810.0 660,810.0 690,810.0 720,810.0 750,810.0 780,811.8823529411765 810,813.7647058823529 840,810.0 870,812.8235294117648 900,818.0 930,810.0 960,810.0 990,821.7647058823529 1020,893.2941176470588 1050,923.8823529411765 1080,930.0 1110,930.0 1140,926.2352941176471 1170,930.0 1200,930.0 1230,930.0 1260,930.0 1290,930.0 1320,930.0 1350,930.0 1380,930.0 1410,930.0 1440,930.0 1470,930.0 1500,930.0 1560,930" stroke="black" stroke-width="5" /><polyline fill="white" points="30,960 30,960.0 60,960.0 90,960.0 120,960.0 150,960.0 180,960.0 210,960.0 240,960.0 270,960.0 300,959.5294117647059 330,959.0588235294117 360,960.0 390,960.0 420,954.8235294117648 450,960.0 480,943.0588235294117 510,911.5294117647059 540,840.0 570,840.0 600,848.0 630,840.0 660,840.0 690,845.6470588235294 720,840.0 750,843.7647058823529 780,840.9411764705883 810,842.8235294117648 840,841.4117647058823 870,840.0 900,840.0 930,840.4705882352941 960,847.0588235294117 990,840.0 1020,845.6470588235294 1050,917.1764705882352 1080,957.6470588235294 1110,956.7058823529412 1140,960.0 1170,956.7058823529412 1200,960.0 1230,960.0 1260,960.0 1290,960.0 1320,960.0 1350,960.0 1380,960.0 1410,960.0 1440,960.0 1470,960.0 1500,960.0 1560,960" stroke="black" stroke-width="5" /><polyline fill="white" points="30,990 30,990.0 60,990.0 90,990.0 120,990.0 150,990.0 180,990.0 210,990.0 240,990.0 270,990.0 300,988.5882352941177 330,989.5294117647059 360,989.0588235294117 390,990.0 420,985.2941176470588 450,990.0 480,990.0 510,928.3529411764706 540,874.7058823529412 570,877.5294117647059 600,870.0 630,870.0 660,871.4117647058823 690,870.0 720,873.7647058823529 750,873.7647058823529 780,870.0 810,870.0 840,873.2941176470588 870,870.4705882352941 900,870.0 930,870.0 960,870.0 990,870.9411764705883 1020,870.0 1050,871.8823529411765 1080,941.0588235294117 1110,990.0 1140,986.2352941176471 1170,988.5882352941177 1200,989.0588235294117 1230,990.0 1260,990.0 1290,990.0 1320,990.0 1350,990.0 1380,990.0 1410,990.0 1440,990.0 1470,990.0 1500,990.0 1560,990" stroke="black" stroke-width="5" /><polyline fill="white" points="30,1020 30,1020.0 60,1020.0 90,1020.0 120,1020.0 150,1020.0 180,1020.0 210,1020.0 240,1020.0 270,1018.5882352941177 300,1020.0 330,1020.0 360,1013.4117647058823 390,1020.0 420,1017.6470588235294 450,1015.7647058823529 480,1020.0 510,920.2352941176471 540,900.0 570,908.9411764705883 600,900.0 630,905.6470588235294 660,903.7647058823529 690,900.0 720,903.2941176470588 750,900.0 780,900.0 810,900.0 840,903.2941176470588 870,903.2941176470588 900,902.8235294117648 930,907.0588235294117 960,900.0 990,902.3529411764706 1020,900.9411764705883 1050,900.0 1080,904.2352941176471 1110,967.2941176470588 1140,1019.5294117647059 1170,1016.7058823529412 1200,1020.0 1230,1020.0 1260,1020.0 1290,1020.0 1320,1020.0 1350,1020.0 1380,1020.0 1410,1020.0 1440,1020.0 1470,1020.0 1500,1020.0 1560,1020" stroke="black" stroke-width="5" /><polyline fill="white" points="30,1050 30,1050.0 60,1050.0 90,1050.0 120,1050.0 150,1050.0 180,1050.0 210,1050.0 240,1050.0 270,1045.2941176470588 300,1050.0 330,1050.0 360,1045.764705882353 390,1050.0 420,1047.1764705882354 450,1050.0 480,1050.0 510,1034.4705882352941 540,943.1764705882352 570,930.0 600,942.2352941176471 630,930.4705882352941 660,930.0 690,933.7647058823529 720,930.0 750,930.0 780,936.1176470588235 810,930.9411764705883 840,930.0 870,930.0 900,930.0 930,930.4705882352941 960,930.0 990,930.0 1020,930.0 1050,933.2941176470588 1080,931.4117647058823 1110,930.0 1140,988.3529411764706 1170,1050.0 1200,1042.9411764705883 1230,1050.0 1260,1050.0 1290,1050.0 1320,1050.0 1350,1050.0 1380,1050.0 1410,1050.0 1440,1050.0 1470,1050.0 1500,1050.0 1560,1050" stroke="black" stroke-width="5" /><polyline fill="white" points="30,1080 30,1080.0 60,1080.0 90,1080.0 120,1080.0 150,1080.0 180,1080.0 210,1080.0 240,1080.0 270,1080.0 300,1080.0 330,1074.3529411764705 360,1080.0 390,1080.0 420,1075.764705882353 450,1080.0 480,1076.235294117647 510,1075.764705882353 540,1047.5294117647059 570,967.5294117647059 600,960.0 630,960.0 660,961.8823529411765 690,960.0 720,962.3529411764706 750,960.0 780,962.8235294117648 810,960.0 840,961.4117647058823 870,965.1764705882352 900,960.0 930,962.3529411764706 960,961.4117647058823 990,960.9411764705883 1020,961.8823529411765 1050,960.0 1080,960.0 1110,960.9411764705883 1140,967.5294117647059 1170,1010.8235294117648 1200,1080.0 1230,1080.0 1260,1080.0 1290,1080.0 1320,1080.0 1350,1080.0 1380,1080.0 1410,1080.0 1440,1080.0 1470,1080.0 1500,1080.0 1560,1080" stroke="black" stroke-width="5" /><polyline fill="white" points="30,1110 30,1110.0 60,1110.0 90,1110.0 120,1110.0 150,1110.0 180,1110.0 210,1110.0 240,1110.0 270,1110.0 300,1110.0 330,1110.0 360,1110.0 390,1110.0 420,1110.0 450,1110.0 480,1110.0 510,1106.7058823529412 540,1110.0 570,1038.0 600,990.0 630,995.1764705882352 660,994.2352941176471 690,990.0 720,992.3529411764706 750,991.8823529411765 780,990.0 810,991.4117647058823 840,990.0 870,990.0 900,993.2941176470588 930,990.0 960,992.3529411764706 990,990.0 1020,994.2352941176471 1050,990.0 1080,990.0 1110,995.1764705882352 1140,990.0 1170,997.5294117647059 1200,1042.235294117647 1230,1108.1176470588234 1260,1108.5882352941176 1290,1110.0 1320,1110.0 1350,1109.5294117647059 1380,1109.5294117647059 1410,1106.7058823529412 1440,1106.235294117647 1470,1110.0 1500,1110.0 1560,1110" stroke="black" stroke-width="5" /><polyline fill="white" points="30,1140 30,1140.0 60,1140.0 90,1140.0 120,1140.0 150,1140.0 180,1140.0 210,1140.0 240,1140.0 270,1140.0 300,1140.0 330,1140.0 360,1140.0 390,1140.0 420,1140.0 450,1140.0 480,1140.0 510,1135.2941176470588 540,1140.0 570,1140.0 600,1067.0588235294117 630,1020.9411764705883 660,1020.0 690,1032.7058823529412 720,1020.0 750,1023.7647058823529 780,1020.0 810,1024.7058823529412 840,1022.3529411764706 870,1020.0 900,1023.2941176470588 930,1020.0 960,1020.0 990,1020.0 1020,1022.8235294117648 1050,1020.0 1080,1020.0 1110,1028.0 1140,1020.0 1170,1020.0 1200,1030.3529411764705 1230,1076.0 1260,1140.0 1290,1137.6470588235295 1320,1134.3529411764705 1350,1140.0 1380,1138.1176470588234 1410,1140.0 1440,1140.0 1470,1140.0 1500,1140.0 1560,1140" stroke="black" stroke-width="5" /><polyline fill="white" points="30,1170 30,1170.0 60,1170.0 90,1170.0 120,1170.0 150,1170.0 180,1170.0 210,1170.0 240,1170.0 270,1170.0 300,1170.0 330,1170.0 360,1170.0 390,1170.0 420,1170.0 450,1170.0 480,1170.0 510,1167.6470588235295 540,1170.0 570,1164.3529411764705 600,1170.0 630,1066.9411764705883 660,1055.6470588235295 690,1050.0 720,1056.5882352941176 750,1050.4705882352941 780,1050.0 810,1051.4117647058824 840,1051.8823529411766 870,1050.0 900,1051.8823529411766 930,1051.4117647058824 960,1050.0 990,1050.0 1020,1053.2941176470588 1050,1050.0 1080,1050.0 1110,1052.3529411764705 1140,1052.3529411764705 1170,1050.0 1200,1050.0 1230,1052.8235294117646 1260,1095.1764705882354 1290,1167.1764705882354 1320,1165.764705882353 1350,1170.0 1380,1164.8235294117646 1410,1170.0 1440,1164.3529411764705 1470,1170.0 1500,1170.0 1560,1170" stroke="black" stroke-width="5" /><polyline fill="white" points="30,1200 30,1200.0 60,1200.0 90,1200.0 120,1200.0 150,1200.0 180,1200.0 210,1200.0 240,1200.0 270,1200.0 300,1200.0 330,1200.0 360,1200.0 390,1200.0 420,1200.0 450,1200.0 480,1200.0 510,1200.0 540,1197.1764705882354 570,1200.0 600,1194.3529411764705 630,1169.8823529411766 660,1083.2941176470588 690,1080.0 720,1080.0 750,1082.3529411764705 780,1080.0 810,1080.9411764705883 840,1081.4117647058824 870,1080.0 900,1080.0 930,1083.764705882353 960,1081.4117647058824 990,1080.4705882352941 1020,1081.4117647058824 1050,1081.4117647058824 1080,1080.0 1110,1080.0 1140,1081.8823529411766 1170,1085.6470588235295 1200,1083.2941176470588 1230,1080.9411764705883 1260,1080.0 1290,1132.235294117647 1320,1200.0 1350,1190.1176470588234 1380,1200.0 1410,1197.6470588235295 1440,1200.0 1470,1200.0 1500,1200.0 1560,1200" stroke="black" stroke-width="5" /><polyline fill="white" points="30,1230 30,1230.0 60,1230.0 90,1230.0 120,1230.0 150,1230.0 180,1230.0 210,1230.0 240,1230.0 270,1230.0 300,1230.0 330,1230.0 360,1230.0 390,1230.0 420,1230.0 450,1230.0 480,1230.0 510,1224.8235294117646 540,1230.0 570,1223.4117647058824 600,1230.0 630,1229.5294117647059 660,1121.764705882353 690,1110.0 720,1116.5882352941176 750,1110.4705882352941 780,1110.0 810,1111.8823529411766 840,1113.764705882353 870,1110.0 900,1110.0 930,1111.4117647058824 960,1110.0 990,1110.0 1020,1110.0 1050,1112.3529411764705 1080,1113.764705882353 1110,1110.0 1140,1110.0 1170,1111.4117647058824 1200,1110.0 1230,1110.4705882352941 1260,1115.6470588235295 1290,1110.0 1320,1196.1176470588234 1350,1230.0 1380,1225.764705882353 1410,1228.1176470588234 1440,1230.0 1470,1230.0 1500,1230.0 1560,1230" stroke="black" stroke-width="5" /><polyline fill="white" points="30,1260 30,1260.0 60,1260.0 90,1260.0 120,1260.0 150,1260.0 180,1260.0 210,1260.0 240,1260.0 270,1260.0 300,1260.0 330,1260.0 360,1260.0 390,1260.0 420,1260.0 450,1260.0 480,1260.0 510,1260.0 540,1260.0 570,1255.2941176470588 600,1255.2941176470588 630,1255.764705882353 660,1144.7058823529412 690,1140.0 720,1140.0 750,1140.0 780,1140.0 810,1140.0 840,1140.0 870,1141.8823529411766 900,1140.0 930,1140.9411764705883 960,1140.0 990,1141.8823529411766 1020,1140.0 1050,1140.0 1080,1141.4117647058824 1110,1140.4705882352941 1140,1140.0 1170,1140.0 1200,1140.0 1230,1140.0 1260,1145.6470588235295 1290,1140.0 1320,1164.9411764705883 1350,1260.0 1380,1255.2941176470588 1410,1258.5882352941176 1440,1256.235294117647 1470,1260.0 1500,1260.0 1560,1260" stroke="black" stroke-width="5" /><polyline fill="white" points="30,1290 30,1290.0 60,1290.0 90,1290.0 120,1290.0 150,1290.0 180,1290.0 210,1290.0 240,1290.0 270,1290.0 300,1290.0 330,1290.0 360,1290.0 390,1290.0 420,1290.0 450,1290.0 480,1290.0 510,1284.3529411764705 540,1290.0 570,1290.0 600,1286.235294117647 630,1290.0 660,1263.1764705882354 690,1266.4705882352941 720,1241.0588235294117 750,1216.5882352941176 780,1207.6470588235295 810,1174.7058823529412 840,1170.0 870,1172.3529411764705 900,1170.4705882352941 930,1170.9411764705883 960,1170.9411764705883 990,1172.3529411764705 1020,1170.0 1050,1170.0 1080,1170.0 1110,1170.0 1140,1171.4117647058824 1170,1172.3529411764705 1200,1171.8823529411766 1230,1171.8823529411766 1260,1170.0 1290,1170.9411764705883 1320,1170.0 1350,1226.0 1380,1290.0 1410,1283.8823529411766 1440,1290.0 1470,1290.0 1500,1290.0 1560,1290" stroke="black" stroke-width="5" /><polyline fill="white" points="30,1320 30,1320.0 60,1320.0 90,1320.0 120,1320.0 150,1320.0 180,1320.0 210,1320.0 240,1320.0 270,1320.0 300,1320.0 330,1320.0 360,1320.0 390,1320.0 420,1320.0 450,1320.0 480,1320.0 510,1320.0 540,1317.6470588235295 570,1317.6470588235295 600,1320.0 630,1311.5294117647059 660,1320.0 690,1314.8235294117646 720,1320.0 750,1320.0 780,1299.2941176470588 810,1232.9411764705883 840,1200.0 870,1202.8235294117646 900,1200.0 930,1200.0 960,1200.9411764705883 990,1200.0 1020,1203.764705882353 1050,1204.7058823529412 1080,1200.0 1110,1200.0 1140,1200.0 1170,1200.0 1200,1200.0 1230,1200.0 1260,1200.0 1290,1202.8235294117646 1320,1200.0 1350,1252.7058823529412 1380,1320.0 1410,1319.0588235294117 1440,1320.0 1470,1320.0 1500,1320.0 1560,1320" stroke="black" stroke-width="5" /><polyline fill="white" points="30,1350 30,1350.0 60,1350.0 90,1350.0 120,1350.0 150,1350.0 180,1350.0 210,1350.0 240,1350.0 270,1350.0 300,1350.0 330,1350.0 360,1350.0 390,1350.0 420,1350.0 450,1350.0 480,1350.0 510,1350.0 540,1349.5294117647059 570,1349.5294117647059 600,1350.0 630,1350.0 660,1342.9411764705883 690,1327.8823529411766 720,1315.6470588235295 750,1323.6470588235295 780,1346.7058823529412 810,1348.1176470588234 840,1324.5882352941176 870,1316.1176470588234 900,1238.0 930,1230.0 960,1233.764705882353 990,1230.4705882352941 1020,1230.0 1050,1230.4705882352941 1080,1232.3529411764705 1110,1231.8823529411766 1140,1230.0 1170,1230.0 1200,1233.2941176470588 1230,1230.0 1260,1231.8823529411766 1290,1230.0 1320,1267.1764705882354 1350,1350.0 1380,1350.0 1410,1347.1764705882354 1440,1349.0588235294117 1470,1350.0 1500,1350.0 1560,1350" stroke="black" stroke-width="5" /><polyline fill="white" points="30,1380 30,1380.0 60,1380.0 90,1380.0 120,1380.0 150,1380.0 180,1380.0 210,1380.0 240,1380.0 270,1380.0 300,1380.0 330,1380.0 360,1380.0 390,1380.0 420,1380.0 450,1380.0 480,1380.0 510,1380.0 540,1379.0588235294117 570,1379.0588235294117 600,1380.0 630,1380.0 660,1380.0 690,1377.1764705882354 720,1373.8823529411766 750,1379.0588235294117 780,1380.0 810,1380.0 840,1379.5294117647059 870,1380.0 900,1328.235294117647 930,1299.5294117647059 960,1260.0 990,1260.0 1020,1273.6470588235295 1050,1260.0 1080,1260.0 1110,1262.8235294117646 1140,1260.0 1170,1260.0 1200,1260.0 1230,1260.9411764705883 1260,1260.9411764705883 1290,1260.0 1320,1316.0 1350,1371.0588235294117 1380,1374.8235294117646 1410,1380.0 1440,1380.0 1470,1380.0 1500,1380.0 1560,1380" stroke="black" stroke-width="5" /><polyline fill="white" points="30,1410 30,1410.0 60,1410.0 90,1410.0 120,1410.0 150,1410.0 180,1410.0 210,1410.0 240,1410.0 270,1410.0 300,1410.0 330,1410.0 360,1410.0 390,1410.0 420,1410.0 450,1410.0 480,1410.0 510,1410.0 540,1410.0 570,1410.0 600,1409.0588235294117 630,1408.5882352941176 660,1410.0 690,1410.0 720,1410.0 750,1408.1176470588234 780,1410.0 810,1410.0 840,1401.5294117647059 870,1402.4705882352941 900,1406.235294117647 930,1405.764705882353 960,1353.0588235294117 990,1290.0 1020,1290.0 1050,1290.0 1080,1291.8823529411766 1110,1296.5882352941176 1140,1292.8235294117646 1170,1295.1764705882354 1200,1290.9411764705883 1230,1293.764705882353 1260,1290.0 1290,1293.764705882353 1320,1377.0588235294117 1350,1407.1764705882354 1380,1408.5882352941176 1410,1410.0 1440,1404.8235294117646 1470,1410.0 1500,1410.0 1560,1410" stroke="black" stroke-width="5" /><polyline fill="white" points="30,1440 30,1440.0 60,1440.0 90,1440.0 120,1440.0 150,1440.0 180,1440.0 210,1440.0 240,1440.0 270,1440.0 300,1440.0 330,1440.0 360,1440.0 390,1440.0 420,1440.0 450,1440.0 480,1440.0 510,1440.0 540,1440.0 570,1440.0 600,1439.5294117647059 630,1437.6470588235295 660,1436.7058823529412 690,1438.1176470588234 720,1439.5294117647059 750,1440.0 780,1428.7058823529412 810,1434.3529411764705 840,1440.0 870,1432.0 900,1424.0 930,1440.0 960,1440.0 990,1398.1176470588234 1020,1322.8235294117646 1050,1321.8823529411766 1080,1324.7058823529412 1110,1320.0 1140,1320.0 1170,1320.0 1200,1320.0 1230,1320.0 1260,1324.7058823529412 1290,1341.6470588235295 1320,1430.5882352941176 1350,1440.0 1380,1436.235294117647 1410,1440.0 1440,1440.0 1470,1440.0 1500,1440.0 1560,1440" stroke="black" stroke-width="5" /><polyline fill="white" points="30,1470 30,1470.0 60,1470.0 90,1470.0 120,1470.0 150,1470.0 180,1470.0 210,1470.0 240,1470.0 270,1470.0 300,1470.0 330,1470.0 360,1470.0 390,1470.0 420,1470.0 450,1470.0 480,1470.0 510,1469.0588235294117 540,1469.5294117647059 570,1470.0 600,1470.0 630,1470.0 660,1470.0 690,1469.5294117647059 720,1468.5882352941176 750,1464.8235294117646 780,1470.0 810,1470.0 840,1470.0 870,1456.3529411764705 900,1461.0588235294117 930,1469.5294117647059 960,1464.3529411764705 990,1470.0 1020,1374.0 1050,1352.3529411764705 1080,1355.6470588235295 1110,1350.0 1140,1356.5882352941176 1170,1352.3529411764705 1200,1355.6470588235295 1230,1352.3529411764705 1260,1350.0 1290,1356.5882352941176 1320,1431.4117647058824 1350,1470.0 1380,1467.6470588235295 1410,1470.0 1440,1468.5882352941176 1470,1470.0 1500,1470.0 1560,1470" stroke="black" stroke-width="5" /><polyline fill="white" points="30,1500 30,1500.0 60,1500.0 90,1500.0 120,1500.0 150,1500.0 180,1500.0 210,1500.0 240,1500.0 270,1500.0 300,1500.0 330,1500.0 360,1500.0 390,1500.0 420,1500.0 450,1500.0 480,1500.0 510,1500.0 540,1500.0 570,1499.0588235294117 600,1499.5294117647059 630,1500.0 660,1500.0 690,1500.0 720,1500.0 750,1500.0 780,1497.1764705882354 810,1494.8235294117646 840,1499.5294117647059 870,1496.235294117647 900,1491.0588235294117 930,1494.8235294117646 960,1500.0 990,1497.6470588235295 1020,1437.8823529411766 1050,1380.0 1080,1380.0 1110,1384.7058823529412 1140,1380.0 1170,1380.0 1200,1380.0 1230,1382.3529411764705 1260,1380.0 1290,1383.764705882353 1320,1436.0 1350,1495.2941176470588 1380,1499.0588235294117 1410,1500.0 1440,1500.0 1470,1500.0 1500,1500.0 1560,1500" stroke="black" stroke-width="5" /><polyline fill="white" points="30,1530 30,1530.0 60,1530.0 90,1530.0 120,1530.0 150,1530.0 180,1530.0 210,1530.0 240,1530.0 270,1530.0 300,1530.0 330,1530.0 360,1530.0 390,1530.0 420,1530.0 450,1530.0 480,1530.0 510,1530.0 540,1530.0 570,1529.5294117647059 600,1529.0588235294117 630,1529.0588235294117 660,1529.5294117647059 690,1529.0588235294117 720,1529.0588235294117 750,1523.8823529411766 780,1529.5294117647059 810,1530.0 840,1530.0 870,1525.764705882353 900,1530.0 930,1530.0 960,1521.5294117647059 990,1526.7058823529412 1020,1506.4705882352941 1050,1451.8823529411766 1080,1445.764705882353 1110,1465.0588235294117 1140,1467.4117647058824 1170,1482.9411764705883 1200,1491.4117647058824 1230,1505.0588235294117 1260,1510.235294117647 1290,1523.4117647058824 1320,1528.5882352941176 1350,1530.0 1380,1524.8235294117646 1410,1525.764705882353 1440,1530.0 1470,1530.0 1500,1530.0 1560,1530" stroke="black" stroke-width="5" /><polyline fill="white" points="30,1560 30,1560.0 60,1560.0 90,1560.0 120,1560.0 150,1560.0 180,1560.0 210,1560.0 240,1560.0 270,1560.0 300,1560.0 330,1560.0 360,1560.0 390,1560.0 420,1560.0 450,1560.0 480,1560.0 510,1558.5882352941176 540,1560.0 570,1560.0 600,1560.0 630,1560.0 660,1560.0 690,1560.0 720,1560.0 750,1560.0 780,1549.6470588235295 810,1560.0 840,1560.0 870,1559.0588235294117 900,1556.7058823529412 930,1560.0 960,1560.0 990,1560.0 1020,1557.1764705882354 1050,1556.7058823529412 1080,1560.0 1110,1560.0 1140,1560.0 1170,1558.5882352941176 1200,1560.0 1230,1560.0 1260,1555.764705882353 1290,1560.0 1320,1559.5294117647059 1350,1556.7058823529412 1380,1560.0 1410,1560.0 1440,1556.7058823529412 1470,1560.0 1500,1560.0 1560,1560" stroke="black" stroke-width="5" /><polyline fill="white" points="30,1590 30,1590.0 60,1590.0 90,1590.0 120,1590.0 150,1590.0 180,1590.0 210,1590.0 240,1590.0 270,1590.0 300,1590.0 330,1590.0 360,1590.0 390,1590.0 420,1590.0 450,1590.0 480,1590.0 510,1590.0 540,1590.0 570,1590.0 600,1590.0 630,1590.0 660,1590.0 690,1590.0 720,1590.0 750,1590.0 780,1590.0 810,1590.0 840,1590.0 870,1590.0 900,1590.0 930,1590.0 960,1590.0 990,1589.5294117647059 1020,1589.5294117647059 1050,1589.5294117647059 1080,1589.5294117647059 1110,1589.5294117647059 1140,1589.5294117647059 1170,1589.5294117647059 1200,1589.5294117647059 1230,1590.0 1260,1590.0 1290,1590.0 1320,1590.0 1350,1590.0 1380,1590.0 1410,1590.0 1440,1590.0 1470,1590.0 1500,1590.0 1560,1590" stroke="black" stroke-width="5" /><polyline fill="white" points="30,1620 30,1620.0 60,1620.0 90,1620.0 120,1620.0 150,1620.0 180,1620.0 210,1620.0 240,1620.0 270,1620.0 300,1620.0 330,1620.0 360,1620.0 390,1620.0 420,1620.0 450,1620.0 480,1620.0 510,1620.0 540,1620.0 570,1620.0 600,1620.0 630,1620.0 660,1620.0 690,1620.0 720,1620.0 750,1620.0 780,1620.0 810,1620.0 840,1620.0 870,1620.0 900,1620.0 930,1620.0 960,1620.0 990,1619.5294117647059 1020,1619.5294117647059 1050,1619.5294117647059 1080,1619.5294117647059 1110,1619.5294117647059 1140,1619.5294117647059 1170,1619.5294117647059 1200,1619.5294117647059 1230,1620.0 1260,1620.0 1290,1620.0 1320,1620.0 1350,1620.0 1380,1620.0 1410,1620.0 1440,1620.0 1470,1620.0 1500,1620.0 1560,1620" stroke="black" stroke-width="5" /></svg>